<svg xmlns="http://www.w3.org/2000/svg" xmlns:xlink="http://www.w3.org/1999/xlink" viewBox="0 0 1623.65 1043.69"><defs><style>.cls-1{fill:none;}.cls-2{isolation:isolate;}.cls-3{fill:url(#未命名漸層_11);}.cls-4{clip-path:url(#clip-path);}.cls-5{clip-path:url(#clip-path-2);}.cls-6{fill:#fff;}.cls-7{opacity:0.28;mix-blend-mode:color-dodge;}</style><radialGradient id="未命名漸層_11" cx="811.82" cy="521.84" fx="828.8341348193187" fy="923.9411457721692" r="883.04" gradientUnits="userSpaceOnUse"><stop offset="0.03" stop-color="#9ccdc0"/><stop offset="0.6" stop-color="#2e5f6c"/><stop offset="0.95" stop-color="#172e38"/></radialGradient><clipPath id="clip-path"><rect class="cls-1" width="1623.65" height="1043.69"/></clipPath><clipPath id="clip-path-2"><rect class="cls-1" x="-209.58" y="-224.91" width="2042" height="1360.65" transform="translate(1622.83 910.82) rotate(180)"/></clipPath></defs><g class="cls-2"><g id="圖層_1" data-name="圖層 1"><rect class="cls-3" width="1623.65" height="1043.69"/><g class="cls-4"><g class="cls-5"><path class="cls-6" d="M1188,58.64a1.84,1.84,0,0,0,2.47,2.48,1.64,1.64,0,0,0,.79-.79,1.84,1.84,0,0,0-2.47-2.47A1.58,1.58,0,0,0,1188,58.64Z"/><path class="cls-6" d="M1547.6,107.55a1.84,1.84,0,0,0,2.47,2.47,1.58,1.58,0,0,0,.79-.78,1.85,1.85,0,0,0-2.48-2.48A1.62,1.62,0,0,0,1547.6,107.55Z"/><path class="cls-6" d="M1601.35,63.44a1.84,1.84,0,0,0,2.47,2.48,1.68,1.68,0,0,0,.79-.79,1.84,1.84,0,0,0-2.47-2.47A1.54,1.54,0,0,0,1601.35,63.44Z"/><path class="cls-6" d="M1568.54,433.13a1.84,1.84,0,0,0,2.47,2.47,1.6,1.6,0,0,0,.79-.79,1.84,1.84,0,0,0-2.48-2.47A1.58,1.58,0,0,0,1568.54,433.13Z"/><path class="cls-6" d="M1371.2,318.19a1.84,1.84,0,0,0,2.47,2.47,1.64,1.64,0,0,0,.79-.79,1.84,1.84,0,0,0-2.48-2.47A1.58,1.58,0,0,0,1371.2,318.19Z"/><path class="cls-6" d="M1453.4,231.89a1.84,1.84,0,0,0,2.47,2.48,1.68,1.68,0,0,0,.79-.79,1.84,1.84,0,0,0-2.48-2.47A1.56,1.56,0,0,0,1453.4,231.89Z"/><path class="cls-6" d="M1441.6,225.67a1.84,1.84,0,0,0,2.48,2.47,1.64,1.64,0,0,0,.79-.79,1.84,1.84,0,0,0-2.48-2.47A1.64,1.64,0,0,0,1441.6,225.67Z"/><path class="cls-6" d="M200.12,47.79a1.84,1.84,0,0,0,2.47,2.47,1.62,1.62,0,0,0,.79-.78A1.85,1.85,0,0,0,200.9,47,1.62,1.62,0,0,0,200.12,47.79Z"/><path class="cls-6" d="M143.2,43.88a1.84,1.84,0,0,0,2.48,2.47,1.56,1.56,0,0,0,.78-.78A1.84,1.84,0,0,0,144,43.09,1.68,1.68,0,0,0,143.2,43.88Z"/><ellipse class="cls-6" cx="144.83" cy="21.67" rx="1.71" ry="1.85" transform="translate(27.38 109.13) rotate(-45.18)"/><path class="cls-6" d="M33.34,274.82a1.84,1.84,0,0,0,2.48,2.47,1.56,1.56,0,0,0,.78-.78A1.84,1.84,0,0,0,34.13,274,1.68,1.68,0,0,0,33.34,274.82Z"/><path class="cls-6" d="M47,318.07a1.84,1.84,0,0,0,2.47,2.48,1.68,1.68,0,0,0,.79-.79,1.84,1.84,0,0,0-2.48-2.47A1.56,1.56,0,0,0,47,318.07Z"/><path class="cls-6" d="M99.88,282.88a1.84,1.84,0,0,0,2.48,2.47,1.62,1.62,0,0,0,.79-.78,1.85,1.85,0,0,0-2.48-2.48A1.68,1.68,0,0,0,99.88,282.88Z"/><path class="cls-6" d="M60.85,378.15a1.84,1.84,0,0,0,2.48,2.47,1.62,1.62,0,0,0,.79-.78,1.85,1.85,0,0,0-2.48-2.48A1.68,1.68,0,0,0,60.85,378.15Z"/><path class="cls-6" d="M40.82,414.53A1.84,1.84,0,0,0,43.29,417a1.6,1.6,0,0,0,.79-.79,1.84,1.84,0,0,0-2.48-2.47A1.62,1.62,0,0,0,40.82,414.53Z"/><path class="cls-6" d="M868.44,35.23a1.85,1.85,0,0,0,2.48,2.48,1.64,1.64,0,0,0,.79-.79,1.84,1.84,0,0,0-2.48-2.47A1.62,1.62,0,0,0,868.44,35.23Z"/><path class="cls-6" d="M882,48.74a1.84,1.84,0,0,0,2.47,2.48,1.68,1.68,0,0,0,.79-.79A1.84,1.84,0,0,0,882.82,48,1.56,1.56,0,0,0,882,48.74Z"/><path class="cls-6" d="M1138,38.86a1.84,1.84,0,0,0,2.47,2.47,1.64,1.64,0,0,0,.79-.79,1.84,1.84,0,0,0-2.48-2.47A1.58,1.58,0,0,0,1138,38.86Z"/><path class="cls-6" d="M1199.09,68a1.84,1.84,0,0,0,2.47,2.48,1.68,1.68,0,0,0,.79-.79,1.84,1.84,0,0,0-2.48-2.47A1.56,1.56,0,0,0,1199.09,68Z"/><path class="cls-6" d="M1505.13,218.7a1.84,1.84,0,0,0,2.48,2.47,1.56,1.56,0,0,0,.78-.78,1.84,1.84,0,0,0-2.47-2.48A1.68,1.68,0,0,0,1505.13,218.7Z"/><path class="cls-6" d="M1070.93,302.26a1.84,1.84,0,0,0,2.48,2.47,1.56,1.56,0,0,0,.78-.78,1.84,1.84,0,0,0-2.47-2.48A1.68,1.68,0,0,0,1070.93,302.26Z"/><path class="cls-6" d="M890.72,313.09a1.84,1.84,0,0,0,2.47,2.47,1.62,1.62,0,0,0,.79-.78,1.85,1.85,0,0,0-2.48-2.48A1.62,1.62,0,0,0,890.72,313.09Z"/><path class="cls-6" d="M693,323.5a1.84,1.84,0,0,0,2.48,2.47,1.58,1.58,0,0,0,.78-.79,1.84,1.84,0,0,0-2.47-2.47A1.64,1.64,0,0,0,693,323.5Z"/><path class="cls-6" d="M496.07,304.59a1.84,1.84,0,0,0,2.47,2.47,1.62,1.62,0,0,0,.79-.78,1.85,1.85,0,0,0-2.48-2.48A1.62,1.62,0,0,0,496.07,304.59Z"/><ellipse class="cls-6" cx="429.89" cy="369.02" rx="1.71" ry="1.85" transform="translate(-134.88 413.86) rotate(-45.18)"/><path class="cls-6" d="M369.36,497.61a1.84,1.84,0,0,0,2.47,2.47,1.64,1.64,0,0,0,.79-.79,1.84,1.84,0,0,0-2.48-2.47A1.58,1.58,0,0,0,369.36,497.61Z"/><path class="cls-6" d="M378.94,538a1.85,1.85,0,0,0,2.48,2.48,1.62,1.62,0,0,0,.78-.79,1.84,1.84,0,0,0-2.47-2.47A1.62,1.62,0,0,0,378.94,538Z"/><path class="cls-6" d="M936.56,560.6a1.84,1.84,0,0,0,2.47,2.47,1.58,1.58,0,0,0,.79-.78,1.84,1.84,0,0,0-2.47-2.48A1.64,1.64,0,0,0,936.56,560.6Z"/><path class="cls-6" d="M1107.92,566a1.85,1.85,0,0,0,2.48,2.48,1.62,1.62,0,0,0,.78-.79,1.84,1.84,0,0,0-2.47-2.47A1.62,1.62,0,0,0,1107.92,566Z"/><path class="cls-6" d="M1189.36,570.43a1.84,1.84,0,0,0,2.47,2.48,1.64,1.64,0,0,0,.79-.79,1.84,1.84,0,0,0-2.48-2.47A1.56,1.56,0,0,0,1189.36,570.43Z"/><path class="cls-6" d="M1471.55,318.42a1.84,1.84,0,0,0,2.47,2.47,1.6,1.6,0,0,0,.79-.79,1.84,1.84,0,0,0-2.48-2.47A1.58,1.58,0,0,0,1471.55,318.42Z"/><path class="cls-6" d="M1432.49,419.46a1.84,1.84,0,0,0,2.48,2.47,1.58,1.58,0,0,0,.78-.79,1.84,1.84,0,0,0-2.47-2.47A1.64,1.64,0,0,0,1432.49,419.46Z"/><path class="cls-6" d="M1311.34,487.25a1.84,1.84,0,0,0,2.48,2.47,1.58,1.58,0,0,0,.78-.79,1.84,1.84,0,0,0-2.47-2.47A1.68,1.68,0,0,0,1311.34,487.25Z"/><path class="cls-6" d="M1184.76,517a1.85,1.85,0,0,0,2.48,2.48,1.62,1.62,0,0,0,.78-.79,1.84,1.84,0,0,0-2.47-2.47A1.58,1.58,0,0,0,1184.76,517Z"/><path class="cls-6" d="M1088,552a1.84,1.84,0,0,0,2.47,2.48,1.68,1.68,0,0,0,.79-.79,1.84,1.84,0,0,0-2.48-2.47A1.56,1.56,0,0,0,1088,552Z"/><path class="cls-6" d="M1063.2,665.5a1.85,1.85,0,0,0,2.48,2.48,1.68,1.68,0,0,0,.79-.79,1.84,1.84,0,0,0-2.48-2.47A1.62,1.62,0,0,0,1063.2,665.5Z"/><path class="cls-6" d="M993.13,728.64a1.85,1.85,0,0,0,2.48,2.48,1.68,1.68,0,0,0,.79-.79,1.84,1.84,0,0,0-2.48-2.47A1.62,1.62,0,0,0,993.13,728.64Z"/><path class="cls-6" d="M840.34,770.83a1.85,1.85,0,0,0,2.48,2.48,1.68,1.68,0,0,0,.79-.79,1.84,1.84,0,0,0-2.48-2.47A1.62,1.62,0,0,0,840.34,770.83Z"/><path class="cls-6" d="M782.41,799.64a1.84,1.84,0,0,0,2.47,2.47,1.64,1.64,0,0,0,.79-.79,1.84,1.84,0,0,0-2.48-2.47A1.58,1.58,0,0,0,782.41,799.64Z"/><path class="cls-6" d="M670,703.54a1.85,1.85,0,0,0,2.48,2.48,1.68,1.68,0,0,0,.79-.79,1.84,1.84,0,0,0-2.48-2.47A1.62,1.62,0,0,0,670,703.54Z"/><path class="cls-6" d="M694.5,634.5A1.85,1.85,0,0,0,697,637a1.62,1.62,0,0,0,.78-.79,1.84,1.84,0,0,0-2.47-2.47A1.58,1.58,0,0,0,694.5,634.5Z"/><path class="cls-6" d="M683.93,580.54a1.84,1.84,0,0,0,2.48,2.47,1.56,1.56,0,0,0,.78-.78,1.84,1.84,0,0,0-2.47-2.48A1.68,1.68,0,0,0,683.93,580.54Z"/><path class="cls-6" d="M664.5,493.51A1.84,1.84,0,0,0,667,496a1.58,1.58,0,0,0,.78-.79,1.84,1.84,0,0,0-2.47-2.47A1.64,1.64,0,0,0,664.5,493.51Z"/><path class="cls-6" d="M978.25,481.34a1.84,1.84,0,0,0,2.47,2.48,1.68,1.68,0,0,0,.79-.79,1.85,1.85,0,0,0-2.48-2.48A1.62,1.62,0,0,0,978.25,481.34Z"/><path class="cls-6" d="M883.23,713.78a1.84,1.84,0,0,0,2.47,2.47,1.62,1.62,0,0,0,.79-.78A1.85,1.85,0,0,0,884,713,1.62,1.62,0,0,0,883.23,713.78Z"/><path class="cls-6" d="M1218,788.63a1.84,1.84,0,0,0,2.48,2.47,1.68,1.68,0,0,0,.79-.79,1.84,1.84,0,0,0-2.48-2.47A1.64,1.64,0,0,0,1218,788.63Z"/><path class="cls-6" d="M1535,758.51a1.84,1.84,0,0,0,2.48,2.47,1.62,1.62,0,0,0,.79-.78,1.85,1.85,0,0,0-2.48-2.48A1.68,1.68,0,0,0,1535,758.51Z"/><path class="cls-6" d="M1387.93,458.36a1.85,1.85,0,0,0,2.48,2.48,1.62,1.62,0,0,0,.78-.79,1.84,1.84,0,0,0-2.47-2.47A1.58,1.58,0,0,0,1387.93,458.36Z"/><path class="cls-6" d="M1568.07,553.26a1.84,1.84,0,0,0,2.48,2.47,1.56,1.56,0,0,0,.78-.78,1.84,1.84,0,0,0-2.47-2.48A1.64,1.64,0,0,0,1568.07,553.26Z"/><path class="cls-6" d="M1567.74,772.52a1.84,1.84,0,0,0,2.47,2.47,1.6,1.6,0,0,0,.79-.79,1.84,1.84,0,0,0-2.48-2.47A1.58,1.58,0,0,0,1567.74,772.52Z"/><path class="cls-6" d="M1563,598a1.84,1.84,0,0,0,2.48,2.47,1.56,1.56,0,0,0,.78-.78,1.84,1.84,0,0,0-2.47-2.48A1.68,1.68,0,0,0,1563,598Z"/><path class="cls-6" d="M1343,731.69a1.85,1.85,0,0,0,2.48,2.48,1.62,1.62,0,0,0,.78-.79,1.84,1.84,0,0,0-2.47-2.47A1.58,1.58,0,0,0,1343,731.69Z"/><path class="cls-6" d="M1321.57,678.93a1.84,1.84,0,0,0,2.47,2.47,1.62,1.62,0,0,0,.79-.78,1.85,1.85,0,0,0-2.48-2.48A1.62,1.62,0,0,0,1321.57,678.93Z"/><path class="cls-6" d="M1437.89,932.55a1.84,1.84,0,0,0,2.47,2.47,1.6,1.6,0,0,0,.79-.79,1.84,1.84,0,0,0-2.47-2.47A1.6,1.6,0,0,0,1437.89,932.55Z"/><path class="cls-6" d="M1588,998.56a1.84,1.84,0,0,0,2.48,2.47,1.56,1.56,0,0,0,.78-.78,1.84,1.84,0,0,0-2.47-2.48A1.68,1.68,0,0,0,1588,998.56Z"/><ellipse class="cls-6" cx="1518.22" cy="1024.06" rx="1.71" ry="1.85" transform="translate(-278.32 1379.19) rotate(-45.18)"/><path class="cls-6" d="M1234.51,941.29a1.84,1.84,0,0,0,2.48,2.47,1.62,1.62,0,0,0,.78-.79,1.84,1.84,0,0,0-2.47-2.47A1.64,1.64,0,0,0,1234.51,941.29Z"/><path class="cls-6" d="M1258.73,1004.33a1.85,1.85,0,0,0,2.48,2.48,1.68,1.68,0,0,0,.79-.79,1.84,1.84,0,0,0-2.48-2.47A1.62,1.62,0,0,0,1258.73,1004.33Z"/><path class="cls-6" d="M1456.28,486.67a1.84,1.84,0,0,0,2.48,2.47,1.64,1.64,0,0,0,.79-.79,1.84,1.84,0,0,0-2.48-2.47A1.64,1.64,0,0,0,1456.28,486.67Z"/><path class="cls-6" d="M1296.72,556.12a1.84,1.84,0,0,0,2.48,2.47,1.58,1.58,0,0,0,.78-.79,1.84,1.84,0,0,0-2.47-2.47A1.6,1.6,0,0,0,1296.72,556.12Z"/><path class="cls-6" d="M1481.56,516.88a1.84,1.84,0,0,0,2.47,2.48,1.68,1.68,0,0,0,.79-.79,1.84,1.84,0,0,0-2.48-2.47A1.56,1.56,0,0,0,1481.56,516.88Z"/><path class="cls-6" d="M949.16,1027.12a1.84,1.84,0,0,0,2.47,2.47,1.62,1.62,0,0,0,.79-.78,1.85,1.85,0,0,0-2.48-2.48A1.58,1.58,0,0,0,949.16,1027.12Z"/><path class="cls-6" d="M826.84,912.3a1.85,1.85,0,0,0,2.48,2.48,1.62,1.62,0,0,0,.78-.79,1.84,1.84,0,0,0-2.47-2.47A1.62,1.62,0,0,0,826.84,912.3Z"/><path class="cls-6" d="M1044.23,1027.36a1.85,1.85,0,0,0,2.48,2.48,1.62,1.62,0,0,0,.78-.79,1.84,1.84,0,0,0-2.47-2.47A1.62,1.62,0,0,0,1044.23,1027.36Z"/><path class="cls-6" d="M964,829.11a1.84,1.84,0,0,0,2.47,2.47,1.6,1.6,0,0,0,.79-.79,1.84,1.84,0,0,0-2.47-2.47A1.6,1.6,0,0,0,964,829.11Z"/><path class="cls-6" d="M784.24,975.61a1.85,1.85,0,0,0,2.48,2.48,1.62,1.62,0,0,0,.78-.79,1.84,1.84,0,0,0-2.47-2.47A1.62,1.62,0,0,0,784.24,975.61Z"/><path class="cls-6" d="M1002.78,863.73a1.85,1.85,0,0,0,2.48,2.48,1.62,1.62,0,0,0,.78-.79,1.84,1.84,0,0,0-2.47-2.47A1.62,1.62,0,0,0,1002.78,863.73Z"/><path class="cls-6" d="M382.16,959.2a1.84,1.84,0,0,0,2.48,2.47,1.56,1.56,0,0,0,.78-.78,1.84,1.84,0,0,0-2.47-2.48A1.68,1.68,0,0,0,382.16,959.2Z"/><path class="cls-6" d="M598.9,960.45a1.84,1.84,0,0,0,2.48,2.47,1.56,1.56,0,0,0,.78-.78,1.84,1.84,0,0,0-2.47-2.48A1.68,1.68,0,0,0,598.9,960.45Z"/><path class="cls-6" d="M177.51,1037.19a1.84,1.84,0,0,0,2.47,2.48,1.64,1.64,0,0,0,.79-.79,1.84,1.84,0,0,0-2.48-2.47A1.6,1.6,0,0,0,177.51,1037.19Z"/><path class="cls-6" d="M288.12,808.84a1.84,1.84,0,0,0,2.47,2.48,1.68,1.68,0,0,0,.79-.79,1.84,1.84,0,0,0-2.48-2.47A1.56,1.56,0,0,0,288.12,808.84Z"/><path class="cls-6" d="M239.06,546.15a1.85,1.85,0,0,0,2.48,2.48,1.62,1.62,0,0,0,.78-.79,1.84,1.84,0,0,0-2.47-2.47A1.62,1.62,0,0,0,239.06,546.15Z"/><path class="cls-6" d="M248.64,820.66a1.84,1.84,0,0,0,2.48,2.47,1.64,1.64,0,0,0,.79-.79,1.84,1.84,0,0,0-2.48-2.47A1.68,1.68,0,0,0,248.64,820.66Z"/><path class="cls-6" d="M115.06,669.79a1.84,1.84,0,0,0,2.47,2.47,1.62,1.62,0,0,0,.79-.78,1.85,1.85,0,0,0-2.48-2.48A1.62,1.62,0,0,0,115.06,669.79Z"/><path class="cls-6" d="M106.22,233.37a1.84,1.84,0,0,0,2.47,2.47,1.62,1.62,0,0,0,.79-.78,1.85,1.85,0,0,0-2.48-2.48A1.62,1.62,0,0,0,106.22,233.37Z"/><path class="cls-6" d="M375.77,101.66a1.84,1.84,0,0,0,2.47,2.47,1.62,1.62,0,0,0,.79-.78,1.85,1.85,0,0,0-2.48-2.48A1.62,1.62,0,0,0,375.77,101.66Z"/><path class="cls-6" d="M518.61,145.1a1.85,1.85,0,0,0,2.48,2.48,1.62,1.62,0,0,0,.78-.79,1.84,1.84,0,0,0-2.47-2.47A1.58,1.58,0,0,0,518.61,145.1Z"/><path class="cls-6" d="M430.55,248.75a1.84,1.84,0,0,0,2.47,2.48,1.68,1.68,0,0,0,.79-.79,1.84,1.84,0,0,0-2.48-2.47A1.56,1.56,0,0,0,430.55,248.75Z"/><path class="cls-6" d="M978.69,42.18a1.84,1.84,0,0,0,2.47,2.47,1.62,1.62,0,0,0,.79-.78,1.85,1.85,0,0,0-2.48-2.48A1.62,1.62,0,0,0,978.69,42.18Z"/><path class="cls-6" d="M1207.46,245.78a1.85,1.85,0,0,0,2.48,2.48,1.62,1.62,0,0,0,.78-.79,1.84,1.84,0,0,0-2.47-2.47A1.62,1.62,0,0,0,1207.46,245.78Z"/><path class="cls-6" d="M1149.92,365.08a1.84,1.84,0,0,0,2.47,2.48,1.64,1.64,0,0,0,.79-.79,1.84,1.84,0,0,0-2.48-2.47A1.56,1.56,0,0,0,1149.92,365.08Z"/><path class="cls-6" d="M787.55,32.16A1.84,1.84,0,0,0,790,34.63a1.62,1.62,0,0,0,.79-.78,1.85,1.85,0,0,0-2.48-2.48A1.62,1.62,0,0,0,787.55,32.16Z"/><path class="cls-6" d="M860.87,238.26a1.85,1.85,0,0,0,2.48,2.48,1.68,1.68,0,0,0,.79-.79,1.84,1.84,0,0,0-2.48-2.47A1.62,1.62,0,0,0,860.87,238.26Z"/><path class="cls-6" d="M1169.87,126.82a1.84,1.84,0,0,0,2.48,2.47,1.58,1.58,0,0,0,.78-.79,1.84,1.84,0,0,0-2.47-2.47A1.6,1.6,0,0,0,1169.87,126.82Z"/><path class="cls-6" d="M1274.46,174.13a1.84,1.84,0,0,0,2.47,2.47,1.62,1.62,0,0,0,.79-.78,1.85,1.85,0,0,0-2.48-2.48A1.62,1.62,0,0,0,1274.46,174.13Z"/><path class="cls-6" d="M1424.68,91.65a1.85,1.85,0,0,0,2.48,2.48,1.68,1.68,0,0,0,.79-.79,1.84,1.84,0,0,0-2.48-2.47A1.62,1.62,0,0,0,1424.68,91.65Z"/><path class="cls-6" d="M1449.1,88.89a1.84,1.84,0,0,0,2.47,2.47,1.64,1.64,0,0,0,.79-.79,1.84,1.84,0,0,0-2.48-2.47A1.58,1.58,0,0,0,1449.1,88.89Z"/><path class="cls-6" d="M1370.78,95.11a1.84,1.84,0,0,0,2.48,2.47,1.62,1.62,0,0,0,.79-.78,1.85,1.85,0,0,0-2.48-2.48A1.68,1.68,0,0,0,1370.78,95.11Z"/><path class="cls-6" d="M1425.53,73.81a1.84,1.84,0,0,0,2.47,2.47,1.58,1.58,0,0,0,.79-.78,1.84,1.84,0,0,0-2.48-2.47A1.56,1.56,0,0,0,1425.53,73.81Z"/><path class="cls-6" d="M1376.14,70.65a1.84,1.84,0,0,0,2.47,2.47,1.58,1.58,0,0,0,.79-.78,1.85,1.85,0,0,0-2.48-2.48A1.62,1.62,0,0,0,1376.14,70.65Z"/><ellipse class="cls-6" cx="1610.9" cy="185.3" rx="1.71" ry="1.85" transform="translate(344.01 1197.38) rotate(-45.18)"/><path class="cls-6" d="M1580.93,80.23a1.85,1.85,0,0,0,2.48,2.48,1.62,1.62,0,0,0,.78-.79,1.84,1.84,0,0,0-2.47-2.48A1.68,1.68,0,0,0,1580.93,80.23Z"/><path class="cls-6" d="M1609.55,49.51A1.84,1.84,0,0,0,1612,52a1.68,1.68,0,0,0,.79-.79,1.84,1.84,0,0,0-2.48-2.47A1.56,1.56,0,0,0,1609.55,49.51Z"/><path class="cls-6" d="M1614.34,153.49a1.85,1.85,0,0,0,2.48,2.48,1.62,1.62,0,0,0,.78-.79,1.84,1.84,0,0,0-2.47-2.47A1.62,1.62,0,0,0,1614.34,153.49Z"/><path class="cls-6" d="M1113.27,37.37a1.84,1.84,0,0,0,2.47,2.47,1.64,1.64,0,0,0,.79-.79,1.84,1.84,0,0,0-2.48-2.47A1.58,1.58,0,0,0,1113.27,37.37Z"/><path class="cls-6" d="M703.1,99.75a1.84,1.84,0,0,0,2.48,2.47,1.62,1.62,0,0,0,.79-.78A1.85,1.85,0,0,0,703.89,99,1.68,1.68,0,0,0,703.1,99.75Z"/><path class="cls-6" d="M456,62.66a1.84,1.84,0,0,0,2.47,2.47,1.58,1.58,0,0,0,.79-.78,1.85,1.85,0,0,0-2.48-2.48A1.62,1.62,0,0,0,456,62.66Z"/><path class="cls-6" d="M518.92,28.42a1.84,1.84,0,0,0,2.47,2.48,1.68,1.68,0,0,0,.79-.79,1.84,1.84,0,0,0-2.48-2.47A1.56,1.56,0,0,0,518.92,28.42Z"/><path class="cls-6" d="M561.71,72.19a1.84,1.84,0,0,0,2.48,2.47,1.62,1.62,0,0,0,.79-.78,1.85,1.85,0,0,0-2.48-2.48A1.68,1.68,0,0,0,561.71,72.19Z"/><path class="cls-6" d="M149.49,67.32A1.84,1.84,0,0,0,152,69.8a1.64,1.64,0,0,0,.79-.79,1.84,1.84,0,0,0-2.48-2.47A1.56,1.56,0,0,0,149.49,67.32Z"/><path class="cls-6" d="M276.36,269.76a1.84,1.84,0,0,0,2.48,2.47,1.62,1.62,0,0,0,.78-.79,1.84,1.84,0,0,0-2.47-2.47A1.64,1.64,0,0,0,276.36,269.76Z"/><path class="cls-6" d="M251.5,300.61a1.84,1.84,0,0,0,2.48,2.47,1.62,1.62,0,0,0,.78-.79,1.84,1.84,0,0,0-2.47-2.47A1.64,1.64,0,0,0,251.5,300.61Z"/><path class="cls-6" d="M332.75,207.39a1.84,1.84,0,0,0,2.47,2.48,1.64,1.64,0,0,0,.79-.79,1.84,1.84,0,0,0-2.48-2.47A1.56,1.56,0,0,0,332.75,207.39Z"/><path class="cls-6" d="M444.08,262.29a1.84,1.84,0,0,0,2.47,2.48,1.6,1.6,0,0,0,.79-.79,1.84,1.84,0,0,0-2.47-2.47A1.58,1.58,0,0,0,444.08,262.29Z"/><path class="cls-6" d="M328.39,469.1a1.84,1.84,0,0,0,2.47,2.47,1.62,1.62,0,0,0,.79-.78,1.85,1.85,0,0,0-2.48-2.48A1.62,1.62,0,0,0,328.39,469.1Z"/><path class="cls-6" d="M457.84,344.4a1.84,1.84,0,0,0,2.48,2.47,1.56,1.56,0,0,0,.78-.78,1.84,1.84,0,0,0-2.47-2.48A1.68,1.68,0,0,0,457.84,344.4Z"/><ellipse class="cls-6" cx="378.32" cy="338.64" rx="1.71" ry="1.85" transform="translate(-128.55 368.31) rotate(-45.18)"/><path class="cls-6" d="M955.59,151a1.85,1.85,0,0,0,2.48,2.48,1.62,1.62,0,0,0,.78-.79,1.84,1.84,0,0,0-2.47-2.47A1.62,1.62,0,0,0,955.59,151Z"/><path class="cls-6" d="M781.84,231.87a1.85,1.85,0,0,0,2.48,2.48,1.68,1.68,0,0,0,.79-.79,1.84,1.84,0,0,0-2.48-2.47A1.62,1.62,0,0,0,781.84,231.87Z"/><path class="cls-6" d="M1080,211.2a1.84,1.84,0,0,0,2.48,2.47,1.62,1.62,0,0,0,.79-.78,1.85,1.85,0,0,0-2.48-2.48A1.68,1.68,0,0,0,1080,211.2Z"/><path class="cls-6" d="M869,223a1.84,1.84,0,0,0,2.48,2.47,1.56,1.56,0,0,0,.78-.78,1.84,1.84,0,0,0-2.47-2.48A1.68,1.68,0,0,0,869,223Z"/><path class="cls-6" d="M1446.6,357.33a1.84,1.84,0,0,0,2.47,2.48,1.64,1.64,0,0,0,.79-.79,1.84,1.84,0,0,0-2.47-2.47A1.58,1.58,0,0,0,1446.6,357.33Z"/><path class="cls-6" d="M1359,385.85a1.85,1.85,0,0,0,2.48,2.47,1.68,1.68,0,0,0,.79-.79,1.84,1.84,0,0,0-2.48-2.47A1.6,1.6,0,0,0,1359,385.85Z"/><path class="cls-6" d="M1545.34,419.26a1.84,1.84,0,0,0,2.48,2.47,1.64,1.64,0,0,0,.79-.79,1.84,1.84,0,0,0-2.48-2.47A1.64,1.64,0,0,0,1545.34,419.26Z"/><path class="cls-6" d="M1574.2,407.47a1.84,1.84,0,0,0,2.47,2.47,1.62,1.62,0,0,0,.79-.78,1.85,1.85,0,0,0-2.48-2.48A1.58,1.58,0,0,0,1574.2,407.47Z"/><path class="cls-6" d="M1404.91,914.56a1.85,1.85,0,0,0,2.48,2.48,1.62,1.62,0,0,0,.78-.79,1.84,1.84,0,0,0-2.47-2.47A1.62,1.62,0,0,0,1404.91,914.56Z"/><path class="cls-6" d="M1402.72,897.38a1.85,1.85,0,0,0,2.48,2.48,1.62,1.62,0,0,0,.78-.79,1.84,1.84,0,0,0-2.47-2.47A1.62,1.62,0,0,0,1402.72,897.38Z"/><path class="cls-6" d="M1160.26,892.06a1.84,1.84,0,0,0,2.47,2.47,1.62,1.62,0,0,0,.79-.78,1.85,1.85,0,0,0-2.48-2.48A1.62,1.62,0,0,0,1160.26,892.06Z"/><path class="cls-6" d="M1092.36,1001.5a1.84,1.84,0,0,0,2.47,2.48,1.64,1.64,0,0,0,.79-.79,1.84,1.84,0,0,0-2.48-2.47A1.56,1.56,0,0,0,1092.36,1001.5Z"/><path class="cls-6" d="M1348.42,1016.32a1.84,1.84,0,0,0,2.48,2.47,1.62,1.62,0,0,0,.79-.78,1.85,1.85,0,0,0-2.48-2.48A1.68,1.68,0,0,0,1348.42,1016.32Z"/><path class="cls-6" d="M1453.81,974.73a1.84,1.84,0,0,0,2.47,2.48,1.64,1.64,0,0,0,.79-.79,1.84,1.84,0,0,0-2.47-2.47A1.58,1.58,0,0,0,1453.81,974.73Z"/><path class="cls-6" d="M1329.84,860.92a1.85,1.85,0,0,0,2.48,2.48,1.68,1.68,0,0,0,.79-.79,1.84,1.84,0,0,0-2.48-2.47A1.62,1.62,0,0,0,1329.84,860.92Z"/><path class="cls-6" d="M1355.12,756.8a1.84,1.84,0,0,0,2.47,2.47,1.68,1.68,0,0,0,.79-.79,1.84,1.84,0,0,0-2.48-2.47A1.54,1.54,0,0,0,1355.12,756.8Z"/><path class="cls-6" d="M1225.88,774.76a1.84,1.84,0,0,0,2.48,2.47,1.62,1.62,0,0,0,.79-.78,1.85,1.85,0,0,0-2.48-2.48A1.68,1.68,0,0,0,1225.88,774.76Z"/><path class="cls-6" d="M1380.54,897.1a1.84,1.84,0,0,0,2.48,2.47,1.58,1.58,0,0,0,.78-.79,1.84,1.84,0,0,0-2.47-2.47A1.64,1.64,0,0,0,1380.54,897.1Z"/><path class="cls-6" d="M1528.22,814.9a1.84,1.84,0,0,0,2.48,2.47,1.62,1.62,0,0,0,.79-.78,1.84,1.84,0,0,0-2.48-2.47A1.62,1.62,0,0,0,1528.22,814.9Z"/><path class="cls-6" d="M1364.89,842.64a1.84,1.84,0,0,0,2.48,2.47,1.56,1.56,0,0,0,.78-.78,1.84,1.84,0,0,0-2.47-2.48A1.68,1.68,0,0,0,1364.89,842.64Z"/><path class="cls-6" d="M1522.81,745.48a1.85,1.85,0,0,0,2.48,2.48,1.62,1.62,0,0,0,.78-.79,1.84,1.84,0,0,0-2.47-2.47A1.58,1.58,0,0,0,1522.81,745.48Z"/><path class="cls-6" d="M1391.14,574.43a1.84,1.84,0,0,0,2.47,2.47,1.64,1.64,0,0,0,.79-.79,1.84,1.84,0,0,0-2.48-2.47A1.58,1.58,0,0,0,1391.14,574.43Z"/><path class="cls-6" d="M1336.38,668.33a1.84,1.84,0,0,0,2.48,2.47,1.54,1.54,0,0,0,.78-.79,1.84,1.84,0,0,0-2.47-2.47A1.64,1.64,0,0,0,1336.38,668.33Z"/><path class="cls-6" d="M1388,536.52a1.84,1.84,0,0,0,2.48,2.47,1.56,1.56,0,0,0,.78-.78,1.84,1.84,0,0,0-2.47-2.48A1.68,1.68,0,0,0,1388,536.52Z"/><path class="cls-6" d="M1502.82,735.59a1.84,1.84,0,0,0,2.47,2.47,1.66,1.66,0,0,0,.79-.78,1.85,1.85,0,0,0-2.48-2.48A1.58,1.58,0,0,0,1502.82,735.59Z"/><path class="cls-6" d="M1498.73,768.16a1.84,1.84,0,0,0,2.47,2.47,1.58,1.58,0,0,0,.79-.78,1.85,1.85,0,0,0-2.48-2.48A1.62,1.62,0,0,0,1498.73,768.16Z"/><path class="cls-6" d="M1480.62,684.86a1.85,1.85,0,0,0,2.48,2.47,1.64,1.64,0,0,0,.79-.79,1.84,1.84,0,0,0-2.48-2.47A1.64,1.64,0,0,0,1480.62,684.86Z"/><path class="cls-6" d="M1469.79,684.38a1.85,1.85,0,0,0,2.48,2.48,1.62,1.62,0,0,0,.78-.79,1.84,1.84,0,0,0-2.47-2.47A1.62,1.62,0,0,0,1469.79,684.38Z"/><path class="cls-6" d="M1482.9,641.66a1.84,1.84,0,0,0,2.47,2.47,1.64,1.64,0,0,0,.79-.79,1.84,1.84,0,0,0-2.48-2.47A1.58,1.58,0,0,0,1482.9,641.66Z"/><path class="cls-6" d="M1396.62,677.75a1.85,1.85,0,0,0,2.48,2.48,1.62,1.62,0,0,0,.78-.79,1.84,1.84,0,0,0-2.47-2.47A1.62,1.62,0,0,0,1396.62,677.75Z"/><path class="cls-6" d="M1426.2,638.53a1.84,1.84,0,0,0,2.47,2.47,1.62,1.62,0,0,0,.79-.78,1.85,1.85,0,0,0-2.48-2.48A1.62,1.62,0,0,0,1426.2,638.53Z"/><path class="cls-6" d="M1497,658.28a1.84,1.84,0,0,0,2.48,2.47,1.66,1.66,0,0,0,.79-.78,1.85,1.85,0,0,0-2.48-2.48A1.64,1.64,0,0,0,1497,658.28Z"/><path class="cls-6" d="M1614,716.67a1.84,1.84,0,0,0,2.48,2.47,1.58,1.58,0,0,0,.78-.79,1.84,1.84,0,0,0-2.47-2.47A1.68,1.68,0,0,0,1614,716.67Z"/><path class="cls-6" d="M1107.49,778.49A1.85,1.85,0,0,0,1110,781a1.62,1.62,0,0,0,.78-.79,1.84,1.84,0,0,0-2.47-2.47A1.62,1.62,0,0,0,1107.49,778.49Z"/><path class="cls-6" d="M953.49,650.92a1.84,1.84,0,0,0,2.47,2.47,1.58,1.58,0,0,0,.79-.78,1.84,1.84,0,0,0-2.47-2.48A1.64,1.64,0,0,0,953.49,650.92Z"/><path class="cls-6" d="M848.12,597.39a1.84,1.84,0,0,0,2.47,2.48,1.64,1.64,0,0,0,.79-.79,1.84,1.84,0,0,0-2.48-2.47A1.56,1.56,0,0,0,848.12,597.39Z"/><path class="cls-6" d="M806.71,493.86a1.84,1.84,0,0,0,2.47,2.47,1.64,1.64,0,0,0,.79-.79,1.84,1.84,0,0,0-2.48-2.47A1.58,1.58,0,0,0,806.71,493.86Z"/><path class="cls-6" d="M803.08,413.31a1.84,1.84,0,0,0,2.48,2.47,1.62,1.62,0,0,0,.79-.78,1.85,1.85,0,0,0-2.48-2.48A1.68,1.68,0,0,0,803.08,413.31Z"/><path class="cls-6" d="M751.06,470a1.85,1.85,0,0,0,2.48,2.48,1.62,1.62,0,0,0,.78-.79,1.84,1.84,0,0,0-2.47-2.47A1.62,1.62,0,0,0,751.06,470Z"/><path class="cls-6" d="M953.87,436.77a1.84,1.84,0,0,0,2.47,2.47,1.62,1.62,0,0,0,.79-.78,1.85,1.85,0,0,0-2.48-2.48A1.62,1.62,0,0,0,953.87,436.77Z"/><path class="cls-6" d="M1157.54,412.06a1.84,1.84,0,0,0,2.47,2.48,1.68,1.68,0,0,0,.79-.79,1.84,1.84,0,0,0-2.48-2.47A1.56,1.56,0,0,0,1157.54,412.06Z"/><path class="cls-6" d="M1204.51,382.22a1.84,1.84,0,0,0,2.47,2.48,1.68,1.68,0,0,0,.79-.79,1.84,1.84,0,0,0-2.48-2.47A1.56,1.56,0,0,0,1204.51,382.22Z"/><path class="cls-6" d="M1253.52,268.08a1.85,1.85,0,0,0,2.48,2.48,1.68,1.68,0,0,0,.79-.79,1.85,1.85,0,0,0-2.48-2.48A1.68,1.68,0,0,0,1253.52,268.08Z"/><path class="cls-6" d="M1178.9,389.82a1.85,1.85,0,0,0,2.48,2.48,1.62,1.62,0,0,0,.78-.79,1.84,1.84,0,0,0-2.47-2.47A1.62,1.62,0,0,0,1178.9,389.82Z"/><path class="cls-6" d="M1110,520.26a1.84,1.84,0,0,0,2.47,2.47,1.58,1.58,0,0,0,.79-.78,1.84,1.84,0,0,0-2.47-2.48A1.64,1.64,0,0,0,1110,520.26Z"/><path class="cls-6" d="M904.17,451.88a1.84,1.84,0,0,0,2.47,2.47,1.6,1.6,0,0,0,.79-.79,1.84,1.84,0,0,0-2.48-2.47A1.62,1.62,0,0,0,904.17,451.88Z"/><path class="cls-6" d="M716.71,361.69a1.84,1.84,0,0,0,2.48,2.47,1.58,1.58,0,0,0,.78-.79,1.84,1.84,0,0,0-2.47-2.47A1.64,1.64,0,0,0,716.71,361.69Z"/><path class="cls-6" d="M578.46,420.34a1.84,1.84,0,0,0,2.47,2.47,1.58,1.58,0,0,0,.79-.78,1.84,1.84,0,0,0-2.47-2.48A1.64,1.64,0,0,0,578.46,420.34Z"/><path class="cls-6" d="M574.1,401.62a1.84,1.84,0,0,0,2.47,2.48,1.68,1.68,0,0,0,.79-.79,1.84,1.84,0,0,0-2.48-2.47A1.56,1.56,0,0,0,574.1,401.62Z"/><path class="cls-6" d="M671.51,199.62a1.84,1.84,0,0,0,2.47,2.47,1.62,1.62,0,0,0,.79-.78,1.85,1.85,0,0,0-2.48-2.48A1.62,1.62,0,0,0,671.51,199.62Z"/><path class="cls-6" d="M625.81,145.55a1.85,1.85,0,0,0,2.48,2.48,1.68,1.68,0,0,0,.79-.79,1.85,1.85,0,0,0-2.48-2.48A1.68,1.68,0,0,0,625.81,145.55Z"/><path class="cls-6" d="M355.66,348.71a1.84,1.84,0,0,0,2.48,2.47,1.56,1.56,0,0,0,.78-.78,1.84,1.84,0,0,0-2.47-2.48A1.68,1.68,0,0,0,355.66,348.71Z"/><path class="cls-6" d="M469.05,548.39a1.84,1.84,0,0,0,2.47,2.48,1.64,1.64,0,0,0,.79-.79,1.84,1.84,0,0,0-2.48-2.47A1.56,1.56,0,0,0,469.05,548.39Z"/><path class="cls-6" d="M657.37,654.83a1.85,1.85,0,0,0,2.48,2.48,1.68,1.68,0,0,0,.79-.79,1.84,1.84,0,0,0-2.48-2.47A1.62,1.62,0,0,0,657.37,654.83Z"/><path class="cls-6" d="M622,545.69a1.84,1.84,0,0,0,2.48,2.47,1.56,1.56,0,0,0,.78-.78,1.84,1.84,0,0,0-2.47-2.48A1.68,1.68,0,0,0,622,545.69Z"/><path class="cls-6" d="M504.49,604.94a1.84,1.84,0,0,0,2.48,2.47,1.64,1.64,0,0,0,.79-.79,1.84,1.84,0,0,0-2.48-2.47A1.64,1.64,0,0,0,504.49,604.94Z"/><path class="cls-6" d="M501.08,711.53a1.85,1.85,0,0,0,2.48,2.48,1.62,1.62,0,0,0,.78-.79,1.84,1.84,0,0,0-2.47-2.47A1.58,1.58,0,0,0,501.08,711.53Z"/><path class="cls-6" d="M557.39,759.38a1.84,1.84,0,0,0,2.48,2.47,1.56,1.56,0,0,0,.78-.78,1.84,1.84,0,0,0-2.47-2.48A1.64,1.64,0,0,0,557.39,759.38Z"/><path class="cls-6" d="M583.71,830.08a1.84,1.84,0,0,0,2.47,2.48,1.64,1.64,0,0,0,.79-.79,1.84,1.84,0,0,0-2.47-2.48A1.64,1.64,0,0,0,583.71,830.08Z"/><path class="cls-6" d="M479.47,878.34a1.84,1.84,0,0,0,2.48,2.47,1.56,1.56,0,0,0,.78-.78,1.84,1.84,0,0,0-2.47-2.48A1.68,1.68,0,0,0,479.47,878.34Z"/><path class="cls-6" d="M379.64,660.76a1.84,1.84,0,0,0,2.47,2.47,1.58,1.58,0,0,0,.79-.78,1.85,1.85,0,0,0-2.48-2.48A1.62,1.62,0,0,0,379.64,660.76Z"/><path class="cls-6" d="M338.77,671.12a1.84,1.84,0,0,0,2.48,2.47,1.58,1.58,0,0,0,.78-.79,1.84,1.84,0,0,0-2.48-2.47A1.62,1.62,0,0,0,338.77,671.12Z"/><ellipse class="cls-6" cx="198.57" cy="734.32" rx="1.71" ry="1.85" transform="translate(-462.28 357.59) rotate(-45.18)"/><path class="cls-6" d="M131.49,770.23A1.84,1.84,0,0,0,134,772.7a1.62,1.62,0,0,0,.79-.78,1.85,1.85,0,0,0-2.48-2.48A1.62,1.62,0,0,0,131.49,770.23Z"/><path class="cls-6" d="M234,801.52a1.84,1.84,0,0,0,2.48,2.47,1.56,1.56,0,0,0,.78-.78,1.84,1.84,0,0,0-2.47-2.48A1.68,1.68,0,0,0,234,801.52Z"/><path class="cls-6" d="M550.17,851.22a1.85,1.85,0,0,0,2.48,2.48,1.62,1.62,0,0,0,.78-.79,1.84,1.84,0,0,0-2.47-2.47A1.62,1.62,0,0,0,550.17,851.22Z"/><path class="cls-6" d="M508.21,871.35a1.84,1.84,0,0,0,2.47,2.48,1.6,1.6,0,0,0,.79-.79,1.84,1.84,0,0,0-2.47-2.47A1.58,1.58,0,0,0,508.21,871.35Z"/><path class="cls-6" d="M326.86,740.57a1.84,1.84,0,0,0,2.47,2.47,1.64,1.64,0,0,0,.79-.79,1.84,1.84,0,0,0-2.48-2.47A1.58,1.58,0,0,0,326.86,740.57Z"/><path class="cls-6" d="M220.54,642.11a1.84,1.84,0,0,0,2.47,2.48,1.68,1.68,0,0,0,.79-.79,1.84,1.84,0,0,0-2.48-2.47A1.56,1.56,0,0,0,220.54,642.11Z"/><path class="cls-6" d="M190.78,601.44a1.85,1.85,0,0,0,2.48,2.48,1.68,1.68,0,0,0,.79-.79,1.84,1.84,0,0,0-2.48-2.47A1.62,1.62,0,0,0,190.78,601.44Z"/><path class="cls-6" d="M283.41,432.68a1.85,1.85,0,0,0,2.48,2.48,1.62,1.62,0,0,0,.78-.79,1.84,1.84,0,0,0-2.47-2.48A1.68,1.68,0,0,0,283.41,432.68Z"/><path class="cls-6" d="M320,588.46a1.84,1.84,0,0,0,2.47,2.48,1.68,1.68,0,0,0,.79-.79,1.84,1.84,0,0,0-2.48-2.47A1.56,1.56,0,0,0,320,588.46Z"/><path class="cls-6" d="M169.53,388a1.84,1.84,0,0,0,2.47,2.48,1.68,1.68,0,0,0,.79-.79,1.84,1.84,0,0,0-2.48-2.47A1.56,1.56,0,0,0,169.53,388Z"/><path class="cls-6" d="M156.93,405.26a1.84,1.84,0,0,0,2.48,2.47,1.56,1.56,0,0,0,.78-.78,1.84,1.84,0,0,0-2.47-2.48A1.68,1.68,0,0,0,156.93,405.26Z"/><path class="cls-6" d="M56.87,611a1.84,1.84,0,0,0,2.48,2.47,1.56,1.56,0,0,0,.78-.78,1.84,1.84,0,0,0-2.47-2.48A1.68,1.68,0,0,0,56.87,611Z"/><ellipse class="cls-6" cx="104.81" cy="625.49" rx="1.71" ry="1.85" transform="translate(-412.76 258.96) rotate(-45.18)"/><path class="cls-6" d="M141.92,555.35a1.84,1.84,0,0,0,2.47,2.47,1.62,1.62,0,0,0,.79-.78,1.85,1.85,0,0,0-2.48-2.48A1.62,1.62,0,0,0,141.92,555.35Z"/><path class="cls-6" d="M138.87,513.94a1.84,1.84,0,0,0,2.47,2.47,1.62,1.62,0,0,0,.79-.78,1.85,1.85,0,0,0-2.48-2.48A1.62,1.62,0,0,0,138.87,513.94Z"/><path class="cls-6" d="M69.91,498.59a1.84,1.84,0,0,0,2.47,2.48,1.68,1.68,0,0,0,.79-.79,1.84,1.84,0,0,0-2.48-2.47A1.56,1.56,0,0,0,69.91,498.59Z"/><path class="cls-6" d="M2.32,718.43A1.84,1.84,0,0,0,4.8,720.9a1.56,1.56,0,0,0,.78-.78,1.84,1.84,0,0,0-2.47-2.48A1.64,1.64,0,0,0,2.32,718.43Z"/><path class="cls-6" d="M50.45,854.11a1.84,1.84,0,0,0,2.48,2.47,1.56,1.56,0,0,0,.78-.78,1.84,1.84,0,0,0-2.47-2.48A1.6,1.6,0,0,0,50.45,854.11Z"/><path class="cls-6" d="M87.56,878.11A1.85,1.85,0,0,0,90,880.59a1.62,1.62,0,0,0,.78-.79,1.84,1.84,0,0,0-2.47-2.47A1.62,1.62,0,0,0,87.56,878.11Z"/><path class="cls-6" d="M158.41,937.09a1.84,1.84,0,0,0,2.48,2.47,1.68,1.68,0,0,0,.79-.79,1.84,1.84,0,0,0-2.48-2.47A1.64,1.64,0,0,0,158.41,937.09Z"/><path class="cls-6" d="M222.57,946.18a1.84,1.84,0,0,0,2.47,2.47,1.58,1.58,0,0,0,.79-.78,1.84,1.84,0,0,0-2.47-2.48A1.64,1.64,0,0,0,222.57,946.18Z"/><path class="cls-6" d="M241.84,961.92a1.84,1.84,0,0,0,2.48,2.47,1.62,1.62,0,0,0,.79-.78,1.85,1.85,0,0,0-2.48-2.48A1.68,1.68,0,0,0,241.84,961.92Z"/><path class="cls-6" d="M263.11,1018a1.84,1.84,0,0,0,2.47,2.47,1.62,1.62,0,0,0,.79-.78,1.85,1.85,0,0,0-2.48-2.48A1.62,1.62,0,0,0,263.11,1018Z"/><path class="cls-6" d="M1141.64,911.21a1.84,1.84,0,0,0,2.48,2.47,1.6,1.6,0,0,0,.78-.78,1.84,1.84,0,0,0-2.47-2.48A1.64,1.64,0,0,0,1141.64,911.21Z"/><path class="cls-6" d="M975.56,958.79a1.84,1.84,0,0,0,2.48,2.47,1.62,1.62,0,0,0,.79-.78,1.85,1.85,0,0,0-2.48-2.48A1.68,1.68,0,0,0,975.56,958.79Z"/><path class="cls-6" d="M883,874.23a1.84,1.84,0,0,0,2.47,2.48,1.68,1.68,0,0,0,.79-.79,1.84,1.84,0,0,0-2.48-2.47A1.56,1.56,0,0,0,883,874.23Z"/><path class="cls-6" d="M1176.36,1035.19a1.84,1.84,0,0,0,2.47,2.48,1.68,1.68,0,0,0,.79-.79,1.85,1.85,0,0,0-2.48-2.48A1.62,1.62,0,0,0,1176.36,1035.19Z"/><path class="cls-6" d="M1243.86,870.56a1.84,1.84,0,0,0,2.48,2.47,1.64,1.64,0,0,0,.79-.79,1.84,1.84,0,0,0-2.48-2.47A1.64,1.64,0,0,0,1243.86,870.56Z"/><path class="cls-6" d="M943.3,686.46a1.84,1.84,0,0,0,2.48,2.47,1.62,1.62,0,0,0,.79-.78,1.85,1.85,0,0,0-2.48-2.48A1.68,1.68,0,0,0,943.3,686.46Z"/><path class="cls-6" d="M836.58,837.35a1.85,1.85,0,0,0,2.48,2.47,1.58,1.58,0,0,0,.78-.79,1.84,1.84,0,0,0-2.47-2.47A1.6,1.6,0,0,0,836.58,837.35Z"/><path class="cls-6" d="M1115.51,627.23a1.85,1.85,0,0,0,2.48,2.48,1.68,1.68,0,0,0,.79-.79,1.84,1.84,0,0,0-2.48-2.47A1.62,1.62,0,0,0,1115.51,627.23Z"/><path class="cls-6" d="M1153.35,711.88a1.84,1.84,0,0,0,2.47,2.48,1.68,1.68,0,0,0,.79-.79,1.84,1.84,0,0,0-2.48-2.47A1.56,1.56,0,0,0,1153.35,711.88Z"/><path class="cls-6" d="M1243.62,667.89a1.84,1.84,0,0,0,2.48,2.47,1.56,1.56,0,0,0,.78-.78,1.84,1.84,0,0,0-2.47-2.48A1.64,1.64,0,0,0,1243.62,667.89Z"/><path class="cls-6" d="M1070.78,553.35a1.84,1.84,0,0,0,2.48,2.47,1.56,1.56,0,0,0,.78-.78,1.84,1.84,0,0,0-2.47-2.48A1.64,1.64,0,0,0,1070.78,553.35Z"/><path class="cls-6" d="M925.11,432.2a1.84,1.84,0,0,0,2.48,2.47,1.64,1.64,0,0,0,.79-.79,1.84,1.84,0,0,0-2.48-2.47A1.64,1.64,0,0,0,925.11,432.2Z"/><path class="cls-6" d="M880.14,278.12a1.85,1.85,0,0,0,2.48,2.48,1.62,1.62,0,0,0,.78-.79,1.84,1.84,0,0,0-2.47-2.47A1.62,1.62,0,0,0,880.14,278.12Z"/><path class="cls-6" d="M925,308.34a1.84,1.84,0,0,0,2.48,2.47,1.58,1.58,0,0,0,.78-.79,1.84,1.84,0,0,0-2.47-2.47A1.64,1.64,0,0,0,925,308.34Z"/><path class="cls-6" d="M1023.63,353.8a1.85,1.85,0,0,0,2.48,2.48,1.68,1.68,0,0,0,.79-.79,1.84,1.84,0,0,0-2.48-2.47A1.62,1.62,0,0,0,1023.63,353.8Z"/><path class="cls-6" d="M1034.27,397.2a1.85,1.85,0,0,0,2.48,2.48,1.62,1.62,0,0,0,.78-.79,1.84,1.84,0,0,0-2.47-2.47A1.58,1.58,0,0,0,1034.27,397.2Z"/><path class="cls-6" d="M1051.28,434.67a1.84,1.84,0,0,0,2.47,2.48,1.64,1.64,0,0,0,.79-.79,1.84,1.84,0,0,0-2.47-2.47A1.58,1.58,0,0,0,1051.28,434.67Z"/><path class="cls-6" d="M1050.41,317.68a1.84,1.84,0,0,0,2.47,2.48,1.64,1.64,0,0,0,.79-.79,1.84,1.84,0,0,0-2.48-2.47A1.56,1.56,0,0,0,1050.41,317.68Z"/><path class="cls-6" d="M1028.36,260.1a1.85,1.85,0,0,0,2.48,2.48,1.62,1.62,0,0,0,.78-.79,1.84,1.84,0,0,0-2.47-2.47A1.62,1.62,0,0,0,1028.36,260.1Z"/><path class="cls-6" d="M985.86,227.45a1.84,1.84,0,0,0,2.47,2.48,1.68,1.68,0,0,0,.79-.79,1.84,1.84,0,0,0-2.48-2.47A1.56,1.56,0,0,0,985.86,227.45Z"/><path class="cls-6" d="M953.33,176.06a1.84,1.84,0,0,0,2.47,2.47,1.58,1.58,0,0,0,.79-.78,1.85,1.85,0,0,0-2.48-2.48A1.62,1.62,0,0,0,953.33,176.06Z"/><path class="cls-6" d="M1108.3,123.05a1.84,1.84,0,0,0,2.47,2.47,1.62,1.62,0,0,0,.79-.78,1.85,1.85,0,0,0-2.48-2.48A1.58,1.58,0,0,0,1108.3,123.05Z"/><path class="cls-6" d="M892.16,115.76a1.85,1.85,0,0,0,2.48,2.48,1.62,1.62,0,0,0,.78-.79A1.84,1.84,0,0,0,893,115,1.58,1.58,0,0,0,892.16,115.76Z"/><path class="cls-6" d="M859.88,105.66a1.84,1.84,0,0,0,2.48,2.47,1.62,1.62,0,0,0,.79-.78,1.84,1.84,0,0,0-2.48-2.47A1.62,1.62,0,0,0,859.88,105.66Z"/><path class="cls-6" d="M698,152.33a1.85,1.85,0,0,0,2.48,2.48,1.62,1.62,0,0,0,.78-.79,1.84,1.84,0,0,0-2.47-2.48A1.64,1.64,0,0,0,698,152.33Z"/><path class="cls-6" d="M614.42,285.94a1.84,1.84,0,0,0,2.47,2.47,1.58,1.58,0,0,0,.79-.78,1.85,1.85,0,0,0-2.48-2.48A1.62,1.62,0,0,0,614.42,285.94Z"/><path class="cls-6" d="M589.84,264a1.84,1.84,0,0,0,2.47,2.48,1.64,1.64,0,0,0,.79-.79,1.84,1.84,0,0,0-2.47-2.48A1.64,1.64,0,0,0,589.84,264Z"/><path class="cls-6" d="M454.94,159.22a1.84,1.84,0,0,0,2.47,2.48,1.64,1.64,0,0,0,.79-.79,1.84,1.84,0,0,0-2.47-2.47A1.58,1.58,0,0,0,454.94,159.22Z"/><path class="cls-6" d="M291.29,74.89a1.84,1.84,0,0,0,2.48,2.47,1.56,1.56,0,0,0,.78-.78,1.84,1.84,0,0,0-2.47-2.48A1.68,1.68,0,0,0,291.29,74.89Z"/><path class="cls-6" d="M127.09,175.74a1.84,1.84,0,0,0,2.47,2.47,1.58,1.58,0,0,0,.79-.78,1.84,1.84,0,0,0-2.47-2.48A1.64,1.64,0,0,0,127.09,175.74Z"/><path class="cls-6" d="M91.72,201.86a1.84,1.84,0,0,0,2.47,2.48,1.68,1.68,0,0,0,.79-.79,1.84,1.84,0,0,0-2.48-2.47A1.56,1.56,0,0,0,91.72,201.86Z"/><path class="cls-6" d="M27.47,131.41A1.84,1.84,0,0,0,30,133.88a1.58,1.58,0,0,0,.78-.79,1.84,1.84,0,0,0-2.47-2.47A1.64,1.64,0,0,0,27.47,131.41Z"/><path class="cls-6" d="M103.74,69a1.85,1.85,0,0,0,2.48,2.48,1.62,1.62,0,0,0,.78-.79,1.84,1.84,0,0,0-2.47-2.47A1.62,1.62,0,0,0,103.74,69Z"/><path class="cls-6" d="M138.19,1004.77a1.84,1.84,0,0,0,2.48,2.47,1.56,1.56,0,0,0,.78-.78A1.84,1.84,0,0,0,139,1004,1.64,1.64,0,0,0,138.19,1004.77Z"/><path class="cls-6" d="M99.2,954.55a1.84,1.84,0,0,0,2.47,2.48,1.68,1.68,0,0,0,.79-.79,1.84,1.84,0,0,0-2.48-2.47A1.56,1.56,0,0,0,99.2,954.55Z"/><path class="cls-6" d="M-.59,959.17a1.84,1.84,0,0,0,2.47,2.47,1.64,1.64,0,0,0,.79-.79,1.84,1.84,0,0,0-2.48-2.47A1.58,1.58,0,0,0-.59,959.17Z"/><path class="cls-6" d="M359.25,879.4a1.85,1.85,0,0,0,2.48,2.48,1.68,1.68,0,0,0,.79-.79,1.84,1.84,0,0,0-2.48-2.47A1.62,1.62,0,0,0,359.25,879.4Z"/><path class="cls-6" d="M456.52,797.76a1.85,1.85,0,0,0,2.48,2.48,1.68,1.68,0,0,0,.79-.79,1.85,1.85,0,0,0-2.48-2.48A1.68,1.68,0,0,0,456.52,797.76Z"/><path class="cls-6" d="M495.62,778.21a1.84,1.84,0,0,0,2.47,2.48,1.68,1.68,0,0,0,.79-.79,1.84,1.84,0,0,0-2.48-2.47A1.56,1.56,0,0,0,495.62,778.21Z"/><ellipse class="cls-6" cx="484.71" cy="758.57" rx="1.71" ry="1.85" transform="translate(-395.03 567.72) rotate(-45.18)"/><path class="cls-6" d="M672.34,800.26a1.84,1.84,0,0,0,2.48,2.47,1.62,1.62,0,0,0,.79-.78,1.85,1.85,0,0,0-2.48-2.48A1.68,1.68,0,0,0,672.34,800.26Z"/><path class="cls-6" d="M687.76,892.7a1.84,1.84,0,0,0,2.48,2.47,1.62,1.62,0,0,0,.79-.78,1.85,1.85,0,0,0-2.48-2.48A1.68,1.68,0,0,0,687.76,892.7Z"/><path class="cls-6" d="M690.86,953.77a1.84,1.84,0,0,0,2.48,2.47,1.56,1.56,0,0,0,.78-.78,1.84,1.84,0,0,0-2.47-2.48A1.68,1.68,0,0,0,690.86,953.77Z"/><path class="cls-6" d="M752.71,922.88a1.84,1.84,0,0,0,2.48,2.47,1.56,1.56,0,0,0,.78-.78,1.84,1.84,0,0,0-2.47-2.48A1.68,1.68,0,0,0,752.71,922.88Z"/><path class="cls-6" d="M841.05,682.29a1.84,1.84,0,0,0,2.48,2.47,1.68,1.68,0,0,0,.79-.79,1.84,1.84,0,0,0-2.48-2.47A1.64,1.64,0,0,0,841.05,682.29Z"/><path class="cls-6" d="M851.71,638.42a1.84,1.84,0,0,0,2.48,2.47,1.64,1.64,0,0,0,.79-.79,1.85,1.85,0,0,0-2.48-2.47A1.68,1.68,0,0,0,851.71,638.42Z"/><g class="cls-7"><path class="cls-6" d="M436.81,58.64a1.85,1.85,0,0,1-2.48,2.48,1.68,1.68,0,0,1-.79-.79A1.84,1.84,0,0,1,436,57.86,1.62,1.62,0,0,1,436.81,58.64Z"/><path class="cls-6" d="M77.25,107.55A1.84,1.84,0,0,1,74.77,110a1.56,1.56,0,0,1-.78-.78,1.84,1.84,0,0,1,2.47-2.48A1.68,1.68,0,0,1,77.25,107.55Z"/><path class="cls-6" d="M23.5,63.44A1.85,1.85,0,0,1,21,65.92a1.62,1.62,0,0,1-.78-.79,1.84,1.84,0,0,1,2.47-2.47A1.62,1.62,0,0,1,23.5,63.44Z"/><path class="cls-6" d="M56.31,433.13a1.84,1.84,0,0,1-2.48,2.47,1.58,1.58,0,0,1-.78-.79,1.84,1.84,0,0,1,2.47-2.47A1.64,1.64,0,0,1,56.31,433.13Z"/><path class="cls-6" d="M253.65,318.19a1.84,1.84,0,0,1-2.48,2.47,1.58,1.58,0,0,1-.78-.79,1.84,1.84,0,0,1,2.47-2.47A1.64,1.64,0,0,1,253.65,318.19Z"/><path class="cls-6" d="M171.45,231.89a1.85,1.85,0,0,1-2.48,2.48,1.62,1.62,0,0,1-.78-.79,1.84,1.84,0,0,1,2.47-2.47A1.58,1.58,0,0,1,171.45,231.89Z"/><ellipse class="cls-6" cx="181.61" cy="226.51" rx="1.85" ry="1.71" transform="translate(-106.87 193.84) rotate(-44.82)"/><path class="cls-6" d="M1424.73,47.79a1.84,1.84,0,0,1-2.48,2.47,1.56,1.56,0,0,1-.78-.78,1.84,1.84,0,0,1,2.47-2.48A1.64,1.64,0,0,1,1424.73,47.79Z"/><path class="cls-6" d="M1481.64,43.88a1.84,1.84,0,0,1-2.47,2.47,1.62,1.62,0,0,1-.79-.78,1.85,1.85,0,0,1,2.48-2.48A1.62,1.62,0,0,1,1481.64,43.88Z"/><ellipse class="cls-6" cx="1480.02" cy="21.67" rx="1.85" ry="1.71" transform="translate(414.9 1049.5) rotate(-44.82)"/><path class="cls-6" d="M1591.5,274.82a1.84,1.84,0,0,1-2.47,2.47,1.62,1.62,0,0,1-.79-.78,1.85,1.85,0,0,1,2.48-2.48A1.62,1.62,0,0,1,1591.5,274.82Z"/><path class="cls-6" d="M1577.83,318.07a1.85,1.85,0,0,1-2.48,2.48,1.62,1.62,0,0,1-.78-.79,1.84,1.84,0,0,1,2.47-2.47A1.62,1.62,0,0,1,1577.83,318.07Z"/><path class="cls-6" d="M1525,282.88a1.84,1.84,0,0,1-2.47,2.47,1.58,1.58,0,0,1-.79-.78,1.85,1.85,0,0,1,2.48-2.48A1.62,1.62,0,0,1,1525,282.88Z"/><path class="cls-6" d="M1564,378.15a1.84,1.84,0,0,1-2.47,2.47,1.58,1.58,0,0,1-.79-.78,1.85,1.85,0,0,1,2.48-2.48A1.62,1.62,0,0,1,1564,378.15Z"/><path class="cls-6" d="M1584,414.53a1.84,1.84,0,0,1-2.48,2.47,1.54,1.54,0,0,1-.78-.79,1.84,1.84,0,0,1,2.47-2.47A1.64,1.64,0,0,1,1584,414.53Z"/><path class="cls-6" d="M756.4,35.23a1.84,1.84,0,0,1-2.47,2.48,1.64,1.64,0,0,1-.79-.79,1.84,1.84,0,0,1,2.47-2.47A1.58,1.58,0,0,1,756.4,35.23Z"/><path class="cls-6" d="M742.81,48.74a1.85,1.85,0,0,1-2.48,2.48,1.62,1.62,0,0,1-.78-.79A1.84,1.84,0,0,1,742,48,1.62,1.62,0,0,1,742.81,48.74Z"/><path class="cls-6" d="M486.81,38.86a1.84,1.84,0,0,1-2.48,2.47,1.58,1.58,0,0,1-.78-.79A1.84,1.84,0,0,1,486,38.07,1.64,1.64,0,0,1,486.81,38.86Z"/><path class="cls-6" d="M425.76,68a1.84,1.84,0,0,1-2.47,2.48,1.6,1.6,0,0,1-.79-.79A1.84,1.84,0,0,1,425,67.18,1.58,1.58,0,0,1,425.76,68Z"/><path class="cls-6" d="M119.71,218.7a1.84,1.84,0,0,1-2.47,2.47,1.62,1.62,0,0,1-.79-.78,1.85,1.85,0,0,1,2.48-2.48A1.62,1.62,0,0,1,119.71,218.7Z"/><path class="cls-6" d="M553.91,302.26a1.84,1.84,0,0,1-2.47,2.47,1.62,1.62,0,0,1-.79-.78,1.85,1.85,0,0,1,2.48-2.48A1.62,1.62,0,0,1,553.91,302.26Z"/><path class="cls-6" d="M734.13,313.09a1.84,1.84,0,0,1-2.48,2.47,1.56,1.56,0,0,1-.78-.78,1.84,1.84,0,0,1,2.47-2.48A1.68,1.68,0,0,1,734.13,313.09Z"/><path class="cls-6" d="M931.87,323.5A1.84,1.84,0,0,1,929.4,326a1.64,1.64,0,0,1-.79-.79,1.84,1.84,0,0,1,2.48-2.47A1.58,1.58,0,0,1,931.87,323.5Z"/><path class="cls-6" d="M1128.78,304.59a1.84,1.84,0,0,1-2.47,2.47,1.58,1.58,0,0,1-.79-.78,1.84,1.84,0,0,1,2.47-2.48A1.64,1.64,0,0,1,1128.78,304.59Z"/><path class="cls-6" d="M1196.59,368.17a1.85,1.85,0,0,1-2.48,2.48,1.62,1.62,0,0,1-.78-.79,1.84,1.84,0,0,1,2.47-2.47A1.62,1.62,0,0,1,1196.59,368.17Z"/><path class="cls-6" d="M1255.49,497.61a1.84,1.84,0,0,1-2.48,2.47,1.58,1.58,0,0,1-.78-.79,1.84,1.84,0,0,1,2.47-2.47A1.6,1.6,0,0,1,1255.49,497.61Z"/><path class="cls-6" d="M1245.9,538a1.84,1.84,0,0,1-2.47,2.48,1.68,1.68,0,0,1-.79-.79,1.84,1.84,0,0,1,2.48-2.47A1.56,1.56,0,0,1,1245.9,538Z"/><path class="cls-6" d="M688.29,560.6a1.84,1.84,0,0,1-2.48,2.47,1.56,1.56,0,0,1-.78-.78,1.84,1.84,0,0,1,2.47-2.48A1.68,1.68,0,0,1,688.29,560.6Z"/><path class="cls-6" d="M516.92,566a1.84,1.84,0,0,1-2.47,2.48,1.68,1.68,0,0,1-.79-.79,1.84,1.84,0,0,1,2.48-2.47A1.56,1.56,0,0,1,516.92,566Z"/><path class="cls-6" d="M435.49,570.43a1.85,1.85,0,0,1-2.48,2.48,1.62,1.62,0,0,1-.78-.79,1.84,1.84,0,0,1,2.47-2.47A1.62,1.62,0,0,1,435.49,570.43Z"/><path class="cls-6" d="M153.3,318.42a1.84,1.84,0,0,1-2.48,2.47,1.58,1.58,0,0,1-.78-.79,1.84,1.84,0,0,1,2.47-2.47A1.64,1.64,0,0,1,153.3,318.42Z"/><path class="cls-6" d="M192.36,419.46a1.84,1.84,0,0,1-2.48,2.47,1.64,1.64,0,0,1-.79-.79,1.84,1.84,0,0,1,2.48-2.47A1.64,1.64,0,0,1,192.36,419.46Z"/><path class="cls-6" d="M313.5,487.25a1.84,1.84,0,0,1-2.47,2.47,1.64,1.64,0,0,1-.79-.79,1.84,1.84,0,0,1,2.48-2.47A1.62,1.62,0,0,1,313.5,487.25Z"/><path class="cls-6" d="M440.09,517a1.85,1.85,0,0,1-2.48,2.48,1.68,1.68,0,0,1-.79-.79,1.84,1.84,0,0,1,2.48-2.47A1.62,1.62,0,0,1,440.09,517Z"/><path class="cls-6" d="M536.82,552a1.84,1.84,0,0,1-2.47,2.48,1.64,1.64,0,0,1-.79-.79A1.84,1.84,0,0,1,536,551.2,1.58,1.58,0,0,1,536.82,552Z"/><path class="cls-6" d="M561.64,665.5a1.84,1.84,0,0,1-2.47,2.48,1.64,1.64,0,0,1-.79-.79,1.84,1.84,0,0,1,2.47-2.47A1.58,1.58,0,0,1,561.64,665.5Z"/><path class="cls-6" d="M631.71,728.64a1.84,1.84,0,0,1-2.47,2.48,1.68,1.68,0,0,1-.79-.79,1.84,1.84,0,0,1,2.48-2.47A1.56,1.56,0,0,1,631.71,728.64Z"/><path class="cls-6" d="M784.5,770.83a1.85,1.85,0,0,1-2.48,2.48,1.62,1.62,0,0,1-.78-.79,1.84,1.84,0,0,1,2.47-2.47A1.58,1.58,0,0,1,784.5,770.83Z"/><path class="cls-6" d="M842.44,799.64a1.84,1.84,0,0,1-2.47,2.47,1.56,1.56,0,0,1-.79-.79,1.84,1.84,0,0,1,2.47-2.47A1.6,1.6,0,0,1,842.44,799.64Z"/><path class="cls-6" d="M954.86,703.54a1.84,1.84,0,0,1-2.47,2.48,1.64,1.64,0,0,1-.79-.79,1.84,1.84,0,0,1,2.48-2.47A1.56,1.56,0,0,1,954.86,703.54Z"/><path class="cls-6" d="M930.35,634.5a1.85,1.85,0,0,1-2.48,2.48,1.68,1.68,0,0,1-.79-.79,1.84,1.84,0,0,1,2.48-2.47A1.62,1.62,0,0,1,930.35,634.5Z"/><path class="cls-6" d="M940.91,580.54a1.84,1.84,0,0,1-2.47,2.47,1.62,1.62,0,0,1-.79-.78,1.85,1.85,0,0,1,2.48-2.48A1.62,1.62,0,0,1,940.91,580.54Z"/><path class="cls-6" d="M960.34,493.51a1.84,1.84,0,0,1-2.47,2.47,1.64,1.64,0,0,1-.79-.79,1.84,1.84,0,0,1,2.48-2.47A1.58,1.58,0,0,1,960.34,493.51Z"/><path class="cls-6" d="M646.6,481.34a1.85,1.85,0,0,1-2.48,2.48,1.62,1.62,0,0,1-.78-.79,1.84,1.84,0,0,1,2.47-2.48A1.64,1.64,0,0,1,646.6,481.34Z"/><path class="cls-6" d="M741.62,713.78a1.84,1.84,0,0,1-2.48,2.47,1.56,1.56,0,0,1-.78-.78,1.84,1.84,0,0,1,2.47-2.48A1.64,1.64,0,0,1,741.62,713.78Z"/><path class="cls-6" d="M406.85,788.63a1.84,1.84,0,0,1-2.47,2.47,1.64,1.64,0,0,1-.79-.79,1.84,1.84,0,0,1,2.48-2.47A1.58,1.58,0,0,1,406.85,788.63Z"/><path class="cls-6" d="M89.83,758.51A1.84,1.84,0,0,1,87.36,761a1.58,1.58,0,0,1-.79-.78,1.85,1.85,0,0,1,2.48-2.48A1.62,1.62,0,0,1,89.83,758.51Z"/><path class="cls-6" d="M236.92,458.36a1.85,1.85,0,0,1-2.48,2.48,1.68,1.68,0,0,1-.79-.79,1.84,1.84,0,0,1,2.48-2.47A1.62,1.62,0,0,1,236.92,458.36Z"/><path class="cls-6" d="M56.78,553.26a1.84,1.84,0,0,1-2.48,2.47,1.62,1.62,0,0,1-.79-.78A1.85,1.85,0,0,1,56,552.47,1.68,1.68,0,0,1,56.78,553.26Z"/><path class="cls-6" d="M57.11,772.52A1.84,1.84,0,0,1,54.63,775a1.58,1.58,0,0,1-.78-.79,1.84,1.84,0,0,1,2.47-2.47A1.64,1.64,0,0,1,57.11,772.52Z"/><path class="cls-6" d="M61.83,598a1.84,1.84,0,0,1-2.47,2.47,1.62,1.62,0,0,1-.79-.78,1.85,1.85,0,0,1,2.48-2.48A1.62,1.62,0,0,1,61.83,598Z"/><path class="cls-6" d="M281.9,731.69a1.85,1.85,0,0,1-2.48,2.48,1.68,1.68,0,0,1-.79-.79,1.84,1.84,0,0,1,2.48-2.47A1.62,1.62,0,0,1,281.9,731.69Z"/><path class="cls-6" d="M303.28,678.93a1.84,1.84,0,0,1-2.47,2.47,1.58,1.58,0,0,1-.79-.78,1.84,1.84,0,0,1,2.47-2.48A1.64,1.64,0,0,1,303.28,678.93Z"/><path class="cls-6" d="M187,932.55a1.84,1.84,0,0,1-2.48,2.47,1.64,1.64,0,0,1-.79-.79,1.84,1.84,0,0,1,2.48-2.47A1.64,1.64,0,0,1,187,932.55Z"/><path class="cls-6" d="M36.84,998.56a1.84,1.84,0,0,1-2.48,2.47,1.62,1.62,0,0,1-.79-.78,1.85,1.85,0,0,1,2.48-2.48A1.68,1.68,0,0,1,36.84,998.56Z"/><path class="cls-6" d="M108.26,1023.22a1.84,1.84,0,0,1-2.48,2.47,1.64,1.64,0,0,1-.79-.79,1.84,1.84,0,0,1,2.48-2.47A1.64,1.64,0,0,1,108.26,1023.22Z"/><path class="cls-6" d="M390.33,941.28a1.84,1.84,0,0,1-2.47,2.48,1.68,1.68,0,0,1-.79-.79,1.84,1.84,0,0,1,2.48-2.47A1.6,1.6,0,0,1,390.33,941.28Z"/><path class="cls-6" d="M366.11,1004.33a1.84,1.84,0,0,1-2.47,2.48,1.64,1.64,0,0,1-.79-.79,1.84,1.84,0,0,1,2.48-2.47A1.56,1.56,0,0,1,366.11,1004.33Z"/><path class="cls-6" d="M168.56,486.67a1.84,1.84,0,0,1-2.47,2.47,1.64,1.64,0,0,1-.79-.79,1.84,1.84,0,0,1,2.48-2.47A1.58,1.58,0,0,1,168.56,486.67Z"/><path class="cls-6" d="M328.12,556.12a1.84,1.84,0,0,1-2.47,2.47,1.64,1.64,0,0,1-.79-.79,1.84,1.84,0,0,1,2.48-2.47A1.58,1.58,0,0,1,328.12,556.12Z"/><path class="cls-6" d="M143.29,516.88a1.85,1.85,0,0,1-2.48,2.48,1.62,1.62,0,0,1-.78-.79,1.84,1.84,0,0,1,2.47-2.47A1.62,1.62,0,0,1,143.29,516.88Z"/><path class="cls-6" d="M675.69,1027.12a1.84,1.84,0,0,1-2.48,2.47,1.56,1.56,0,0,1-.78-.78,1.84,1.84,0,0,1,2.47-2.48A1.64,1.64,0,0,1,675.69,1027.12Z"/><path class="cls-6" d="M798,912.3a1.84,1.84,0,0,1-2.47,2.48,1.68,1.68,0,0,1-.79-.79,1.84,1.84,0,0,1,2.48-2.47A1.56,1.56,0,0,1,798,912.3Z"/><path class="cls-6" d="M580.61,1027.36a1.84,1.84,0,0,1-2.47,2.48,1.68,1.68,0,0,1-.79-.79,1.84,1.84,0,0,1,2.48-2.47A1.56,1.56,0,0,1,580.61,1027.36Z"/><path class="cls-6" d="M660.87,829.11a1.84,1.84,0,0,1-2.48,2.47,1.58,1.58,0,0,1-.78-.79,1.84,1.84,0,0,1,2.47-2.47A1.64,1.64,0,0,1,660.87,829.11Z"/><path class="cls-6" d="M840.61,975.61a1.85,1.85,0,0,1-2.48,2.48,1.68,1.68,0,0,1-.79-.79,1.84,1.84,0,0,1,2.48-2.47A1.62,1.62,0,0,1,840.61,975.61Z"/><path class="cls-6" d="M622.07,863.73a1.85,1.85,0,0,1-2.48,2.48,1.68,1.68,0,0,1-.79-.79,1.84,1.84,0,0,1,2.48-2.47A1.62,1.62,0,0,1,622.07,863.73Z"/><path class="cls-6" d="M1242.68,959.2a1.84,1.84,0,0,1-2.47,2.47,1.62,1.62,0,0,1-.79-.78,1.85,1.85,0,0,1,2.48-2.48A1.62,1.62,0,0,1,1242.68,959.2Z"/><path class="cls-6" d="M1025.94,960.45a1.84,1.84,0,0,1-2.47,2.47,1.62,1.62,0,0,1-.79-.78,1.85,1.85,0,0,1,2.48-2.48A1.62,1.62,0,0,1,1025.94,960.45Z"/><path class="cls-6" d="M1447.34,1037.19a1.85,1.85,0,0,1-2.48,2.48,1.62,1.62,0,0,1-.78-.79,1.84,1.84,0,0,1,2.47-2.47A1.62,1.62,0,0,1,1447.34,1037.19Z"/><path class="cls-6" d="M1336.73,808.84a1.84,1.84,0,0,1-2.47,2.48,1.6,1.6,0,0,1-.79-.79,1.84,1.84,0,0,1,2.47-2.47A1.58,1.58,0,0,1,1336.73,808.84Z"/><path class="cls-6" d="M1385.78,546.15a1.84,1.84,0,0,1-2.47,2.48,1.68,1.68,0,0,1-.79-.79,1.84,1.84,0,0,1,2.48-2.47A1.56,1.56,0,0,1,1385.78,546.15Z"/><path class="cls-6" d="M1376.2,820.66a1.84,1.84,0,0,1-2.47,2.47,1.64,1.64,0,0,1-.79-.79,1.84,1.84,0,0,1,2.48-2.47A1.62,1.62,0,0,1,1376.2,820.66Z"/><path class="cls-6" d="M1509.79,669.79a1.84,1.84,0,0,1-2.47,2.47,1.58,1.58,0,0,1-.79-.78A1.84,1.84,0,0,1,1509,669,1.64,1.64,0,0,1,1509.79,669.79Z"/><path class="cls-6" d="M1518.63,233.37a1.84,1.84,0,0,1-2.47,2.47,1.58,1.58,0,0,1-.79-.78,1.84,1.84,0,0,1,2.47-2.48A1.64,1.64,0,0,1,1518.63,233.37Z"/><path class="cls-6" d="M1249.08,101.66a1.84,1.84,0,0,1-2.48,2.47,1.56,1.56,0,0,1-.78-.78,1.84,1.84,0,0,1,2.47-2.48A1.68,1.68,0,0,1,1249.08,101.66Z"/><path class="cls-6" d="M1106.24,145.1a1.85,1.85,0,0,1-2.48,2.48,1.68,1.68,0,0,1-.79-.79,1.84,1.84,0,0,1,2.48-2.47A1.62,1.62,0,0,1,1106.24,145.1Z"/><path class="cls-6" d="M1194.3,248.75a1.84,1.84,0,0,1-2.47,2.48,1.64,1.64,0,0,1-.79-.79,1.84,1.84,0,0,1,2.47-2.47A1.58,1.58,0,0,1,1194.3,248.75Z"/><path class="cls-6" d="M646.16,42.18a1.84,1.84,0,0,1-2.48,2.47,1.56,1.56,0,0,1-.78-.78,1.84,1.84,0,0,1,2.47-2.48A1.64,1.64,0,0,1,646.16,42.18Z"/><ellipse class="cls-6" cx="415.75" cy="246.63" rx="1.85" ry="1.71" transform="translate(-53 364.73) rotate(-44.82)"/><path class="cls-6" d="M474.93,365.08a1.85,1.85,0,0,1-2.48,2.48,1.68,1.68,0,0,1-.79-.79,1.84,1.84,0,0,1,2.48-2.47A1.62,1.62,0,0,1,474.93,365.08Z"/><path class="cls-6" d="M837.3,32.16a1.84,1.84,0,0,1-2.48,2.47,1.56,1.56,0,0,1-.78-.78,1.84,1.84,0,0,1,2.47-2.48A1.68,1.68,0,0,1,837.3,32.16Z"/><path class="cls-6" d="M764,238.26a1.84,1.84,0,0,1-2.47,2.48,1.64,1.64,0,0,1-.79-.79,1.84,1.84,0,0,1,2.47-2.48A1.64,1.64,0,0,1,764,238.26Z"/><path class="cls-6" d="M455,126.82a1.84,1.84,0,0,1-2.48,2.47,1.66,1.66,0,0,1-.79-.78,1.85,1.85,0,0,1,2.48-2.48A1.68,1.68,0,0,1,455,126.82Z"/><path class="cls-6" d="M350.39,174.13a1.84,1.84,0,0,1-2.48,2.47,1.56,1.56,0,0,1-.78-.78,1.84,1.84,0,0,1,2.47-2.48A1.68,1.68,0,0,1,350.39,174.13Z"/><path class="cls-6" d="M200.16,91.65a1.84,1.84,0,0,1-2.47,2.48,1.68,1.68,0,0,1-.79-.79,1.84,1.84,0,0,1,2.48-2.47A1.56,1.56,0,0,1,200.16,91.65Z"/><ellipse class="cls-6" cx="174.12" cy="89.73" rx="1.85" ry="1.71" transform="translate(-12.64 148.81) rotate(-44.82)"/><path class="cls-6" d="M254.06,95.11a1.84,1.84,0,0,1-2.47,2.47,1.58,1.58,0,0,1-.79-.78,1.85,1.85,0,0,1,2.48-2.48A1.62,1.62,0,0,1,254.06,95.11Z"/><path class="cls-6" d="M199.32,73.81a1.84,1.84,0,0,1-2.48,2.47,1.62,1.62,0,0,1-.79-.78A1.84,1.84,0,0,1,198.53,73,1.62,1.62,0,0,1,199.32,73.81Z"/><path class="cls-6" d="M248.71,70.65a1.84,1.84,0,0,1-2.48,2.47,1.56,1.56,0,0,1-.78-.78,1.84,1.84,0,0,1,2.47-2.48A1.68,1.68,0,0,1,248.71,70.65Z"/><ellipse class="cls-6" cx="13.94" cy="185.3" rx="1.85" ry="1.71" transform="translate(-126.56 63.68) rotate(-44.82)"/><path class="cls-6" d="M43.91,80.23a1.84,1.84,0,0,1-2.47,2.48,1.68,1.68,0,0,1-.79-.79,1.85,1.85,0,0,1,2.48-2.48A1.62,1.62,0,0,1,43.91,80.23Z"/><path class="cls-6" d="M15.3,49.51A1.85,1.85,0,0,1,12.82,52,1.62,1.62,0,0,1,12,51.2a1.84,1.84,0,0,1,2.47-2.47A1.58,1.58,0,0,1,15.3,49.51Z"/><path class="cls-6" d="M10.51,153.49A1.85,1.85,0,0,1,8,156a1.68,1.68,0,0,1-.79-.79,1.84,1.84,0,0,1,2.48-2.47A1.62,1.62,0,0,1,10.51,153.49Z"/><path class="cls-6" d="M511.58,37.37a1.84,1.84,0,0,1-2.48,2.47,1.62,1.62,0,0,1-.78-.79,1.84,1.84,0,0,1,2.47-2.47A1.64,1.64,0,0,1,511.58,37.37Z"/><path class="cls-6" d="M921.74,99.75a1.84,1.84,0,0,1-2.47,2.47,1.62,1.62,0,0,1-.79-.78A1.85,1.85,0,0,1,921,99,1.62,1.62,0,0,1,921.74,99.75Z"/><path class="cls-6" d="M1168.82,62.66a1.84,1.84,0,0,1-2.48,2.47,1.56,1.56,0,0,1-.78-.78,1.84,1.84,0,0,1,2.47-2.48A1.68,1.68,0,0,1,1168.82,62.66Z"/><path class="cls-6" d="M1105.93,28.42a1.85,1.85,0,0,1-2.48,2.48,1.62,1.62,0,0,1-.78-.79,1.84,1.84,0,0,1,2.47-2.47A1.62,1.62,0,0,1,1105.93,28.42Z"/><path class="cls-6" d="M1063.13,72.19a1.84,1.84,0,0,1-2.47,2.47,1.58,1.58,0,0,1-.79-.78,1.85,1.85,0,0,1,2.48-2.48A1.62,1.62,0,0,1,1063.13,72.19Z"/><path class="cls-6" d="M1475.36,67.32a1.85,1.85,0,0,1-2.48,2.48,1.62,1.62,0,0,1-.78-.79,1.84,1.84,0,0,1,2.47-2.47A1.62,1.62,0,0,1,1475.36,67.32Z"/><path class="cls-6" d="M1348.48,269.76a1.84,1.84,0,0,1-2.47,2.47,1.68,1.68,0,0,1-.79-.79,1.84,1.84,0,0,1,2.48-2.47A1.58,1.58,0,0,1,1348.48,269.76Z"/><path class="cls-6" d="M1373.34,300.61a1.84,1.84,0,0,1-2.47,2.47,1.68,1.68,0,0,1-.79-.79,1.84,1.84,0,0,1,2.48-2.47A1.54,1.54,0,0,1,1373.34,300.61Z"/><path class="cls-6" d="M1292.1,207.39a1.85,1.85,0,0,1-2.48,2.48,1.62,1.62,0,0,1-.78-.79,1.84,1.84,0,0,1,2.47-2.47A1.62,1.62,0,0,1,1292.1,207.39Z"/><path class="cls-6" d="M1180.77,262.29a1.85,1.85,0,0,1-2.48,2.48,1.58,1.58,0,0,1-.78-.79,1.84,1.84,0,0,1,2.47-2.47A1.62,1.62,0,0,1,1180.77,262.29Z"/><path class="cls-6" d="M1296.46,469.1a1.84,1.84,0,0,1-2.47,2.47,1.58,1.58,0,0,1-.79-.78,1.84,1.84,0,0,1,2.47-2.48A1.64,1.64,0,0,1,1296.46,469.1Z"/><path class="cls-6" d="M1167,344.4a1.84,1.84,0,0,1-2.47,2.47,1.62,1.62,0,0,1-.79-.78,1.85,1.85,0,0,1,2.48-2.48A1.62,1.62,0,0,1,1167,344.4Z"/><path class="cls-6" d="M1248.16,337.8a1.84,1.84,0,0,1-2.48,2.47,1.62,1.62,0,0,1-.78-.79,1.84,1.84,0,0,1,2.47-2.47A1.6,1.6,0,0,1,1248.16,337.8Z"/><path class="cls-6" d="M669.25,151a1.84,1.84,0,0,1-2.47,2.48,1.68,1.68,0,0,1-.79-.79,1.84,1.84,0,0,1,2.48-2.47A1.56,1.56,0,0,1,669.25,151Z"/><path class="cls-6" d="M843,231.87a1.84,1.84,0,0,1-2.47,2.48,1.64,1.64,0,0,1-.79-.79,1.84,1.84,0,0,1,2.47-2.47A1.54,1.54,0,0,1,843,231.87Z"/><path class="cls-6" d="M544.89,211.2a1.84,1.84,0,0,1-2.47,2.47,1.58,1.58,0,0,1-.79-.78,1.85,1.85,0,0,1,2.48-2.48A1.62,1.62,0,0,1,544.89,211.2Z"/><path class="cls-6" d="M755.85,223a1.84,1.84,0,0,1-2.47,2.47,1.62,1.62,0,0,1-.79-.78,1.85,1.85,0,0,1,2.48-2.48A1.62,1.62,0,0,1,755.85,223Z"/><path class="cls-6" d="M178.25,357.33a1.85,1.85,0,0,1-2.48,2.48A1.62,1.62,0,0,1,175,359a1.84,1.84,0,0,1,2.47-2.47A1.62,1.62,0,0,1,178.25,357.33Z"/><path class="cls-6" d="M265.82,385.85a1.84,1.84,0,0,1-2.47,2.47,1.68,1.68,0,0,1-.79-.79,1.84,1.84,0,0,1,2.48-2.47A1.54,1.54,0,0,1,265.82,385.85Z"/><path class="cls-6" d="M79.5,419.26A1.84,1.84,0,0,1,77,421.73a1.64,1.64,0,0,1-.79-.79,1.84,1.84,0,0,1,2.48-2.47A1.58,1.58,0,0,1,79.5,419.26Z"/><path class="cls-6" d="M50.65,407.47a1.84,1.84,0,0,1-2.48,2.47,1.56,1.56,0,0,1-.78-.78,1.84,1.84,0,0,1,2.47-2.48A1.64,1.64,0,0,1,50.65,407.47Z"/><path class="cls-6" d="M219.93,914.56a1.84,1.84,0,0,1-2.47,2.48,1.68,1.68,0,0,1-.79-.79,1.84,1.84,0,0,1,2.48-2.47A1.56,1.56,0,0,1,219.93,914.56Z"/><path class="cls-6" d="M222.12,897.38a1.84,1.84,0,0,1-2.47,2.48,1.68,1.68,0,0,1-.79-.79,1.84,1.84,0,0,1,2.48-2.47A1.56,1.56,0,0,1,222.12,897.38Z"/><path class="cls-6" d="M464.59,892.06a1.84,1.84,0,0,1-2.48,2.47,1.56,1.56,0,0,1-.78-.78,1.84,1.84,0,0,1,2.47-2.48A1.64,1.64,0,0,1,464.59,892.06Z"/><path class="cls-6" d="M532.49,1001.5A1.85,1.85,0,0,1,530,1004a1.62,1.62,0,0,1-.78-.79,1.84,1.84,0,0,1,2.47-2.47A1.62,1.62,0,0,1,532.49,1001.5Z"/><path class="cls-6" d="M276.42,1016.32a1.84,1.84,0,0,1-2.47,2.47,1.58,1.58,0,0,1-.79-.78,1.85,1.85,0,0,1,2.48-2.48A1.62,1.62,0,0,1,276.42,1016.32Z"/><path class="cls-6" d="M171,974.73a1.85,1.85,0,0,1-2.48,2.48,1.68,1.68,0,0,1-.79-.79,1.84,1.84,0,0,1,2.48-2.47A1.62,1.62,0,0,1,171,974.73Z"/><path class="cls-6" d="M295,860.92a1.84,1.84,0,0,1-2.47,2.48,1.64,1.64,0,0,1-.79-.79,1.84,1.84,0,0,1,2.48-2.47A1.56,1.56,0,0,1,295,860.92Z"/><path class="cls-6" d="M269.73,756.79a1.85,1.85,0,0,1-2.48,2.48,1.62,1.62,0,0,1-.78-.79,1.84,1.84,0,0,1,2.47-2.47A1.62,1.62,0,0,1,269.73,756.79Z"/><path class="cls-6" d="M399,774.76a1.84,1.84,0,0,1-2.47,2.47,1.58,1.58,0,0,1-.79-.78,1.84,1.84,0,0,1,2.47-2.48A1.64,1.64,0,0,1,399,774.76Z"/><path class="cls-6" d="M244.3,897.1a1.84,1.84,0,0,1-2.47,2.47,1.64,1.64,0,0,1-.79-.79,1.84,1.84,0,0,1,2.48-2.47A1.58,1.58,0,0,1,244.3,897.1Z"/><path class="cls-6" d="M96.62,814.9a1.84,1.84,0,0,1-2.47,2.47,1.58,1.58,0,0,1-.79-.78,1.84,1.84,0,0,1,2.48-2.47A1.56,1.56,0,0,1,96.62,814.9Z"/><path class="cls-6" d="M260,842.64a1.84,1.84,0,0,1-2.47,2.47,1.62,1.62,0,0,1-.79-.78,1.85,1.85,0,0,1,2.48-2.48A1.62,1.62,0,0,1,260,842.64Z"/><path class="cls-6" d="M102,745.48A1.85,1.85,0,0,1,99.56,748a1.68,1.68,0,0,1-.79-.79,1.84,1.84,0,0,1,2.48-2.47A1.62,1.62,0,0,1,102,745.48Z"/><path class="cls-6" d="M233.71,574.43a1.84,1.84,0,0,1-2.48,2.47,1.58,1.58,0,0,1-.78-.79,1.84,1.84,0,0,1,2.47-2.47A1.64,1.64,0,0,1,233.71,574.43Z"/><path class="cls-6" d="M288.47,668.33A1.84,1.84,0,0,1,286,670.8a1.6,1.6,0,0,1-.79-.79,1.84,1.84,0,0,1,2.48-2.47A1.68,1.68,0,0,1,288.47,668.33Z"/><path class="cls-6" d="M236.83,536.52a1.84,1.84,0,0,1-2.47,2.47,1.62,1.62,0,0,1-.79-.78,1.85,1.85,0,0,1,2.48-2.48A1.62,1.62,0,0,1,236.83,536.52Z"/><path class="cls-6" d="M122,735.59a1.84,1.84,0,0,1-2.47,2.47,1.62,1.62,0,0,1-.79-.78,1.84,1.84,0,0,1,2.47-2.48A1.6,1.6,0,0,1,122,735.59Z"/><path class="cls-6" d="M126.12,768.16a1.84,1.84,0,0,1-2.48,2.47,1.56,1.56,0,0,1-.78-.78,1.84,1.84,0,0,1,2.47-2.48A1.68,1.68,0,0,1,126.12,768.16Z"/><path class="cls-6" d="M144.22,684.86a1.84,1.84,0,0,1-2.47,2.47,1.6,1.6,0,0,1-.79-.79,1.84,1.84,0,0,1,2.48-2.47A1.58,1.58,0,0,1,144.22,684.86Z"/><path class="cls-6" d="M155.05,684.38a1.84,1.84,0,0,1-2.47,2.48,1.68,1.68,0,0,1-.79-.79,1.84,1.84,0,0,1,2.48-2.47A1.56,1.56,0,0,1,155.05,684.38Z"/><path class="cls-6" d="M142,641.66a1.84,1.84,0,0,1-2.48,2.47,1.68,1.68,0,0,1-.79-.79,1.84,1.84,0,0,1,2.48-2.47A1.64,1.64,0,0,1,142,641.66Z"/><path class="cls-6" d="M228.23,677.75a1.85,1.85,0,0,1-2.48,2.48,1.68,1.68,0,0,1-.79-.79,1.84,1.84,0,0,1,2.48-2.47A1.62,1.62,0,0,1,228.23,677.75Z"/><path class="cls-6" d="M198.65,638.53a1.84,1.84,0,0,1-2.48,2.47,1.56,1.56,0,0,1-.78-.78,1.84,1.84,0,0,1,2.47-2.48A1.68,1.68,0,0,1,198.65,638.53Z"/><path class="cls-6" d="M127.81,658.28a1.84,1.84,0,0,1-2.47,2.47,1.66,1.66,0,0,1-.79-.78,1.85,1.85,0,0,1,2.48-2.48A1.58,1.58,0,0,1,127.81,658.28Z"/><path class="cls-6" d="M10.89,716.67a1.84,1.84,0,0,1-2.47,2.47,1.64,1.64,0,0,1-.79-.79,1.85,1.85,0,0,1,2.48-2.47A1.62,1.62,0,0,1,10.89,716.67Z"/><path class="cls-6" d="M517.35,778.49a1.84,1.84,0,0,1-2.47,2.48,1.68,1.68,0,0,1-.79-.79,1.84,1.84,0,0,1,2.48-2.47A1.56,1.56,0,0,1,517.35,778.49Z"/><path class="cls-6" d="M671.36,650.92a1.84,1.84,0,0,1-2.48,2.47,1.62,1.62,0,0,1-.79-.78,1.85,1.85,0,0,1,2.48-2.48A1.68,1.68,0,0,1,671.36,650.92Z"/><path class="cls-6" d="M776.73,597.39a1.85,1.85,0,0,1-2.48,2.48,1.62,1.62,0,0,1-.78-.79,1.84,1.84,0,0,1,2.47-2.47A1.62,1.62,0,0,1,776.73,597.39Z"/><path class="cls-6" d="M818.14,493.86a1.84,1.84,0,0,1-2.48,2.47,1.58,1.58,0,0,1-.78-.79,1.84,1.84,0,0,1,2.47-2.47A1.64,1.64,0,0,1,818.14,493.86Z"/><path class="cls-6" d="M821.76,413.31a1.84,1.84,0,0,1-2.47,2.47,1.58,1.58,0,0,1-.79-.78,1.84,1.84,0,0,1,2.47-2.48A1.64,1.64,0,0,1,821.76,413.31Z"/><path class="cls-6" d="M873.78,470a1.84,1.84,0,0,1-2.47,2.48,1.68,1.68,0,0,1-.79-.79,1.84,1.84,0,0,1,2.48-2.47A1.56,1.56,0,0,1,873.78,470Z"/><path class="cls-6" d="M671,436.77a1.84,1.84,0,0,1-2.47,2.47,1.54,1.54,0,0,1-.79-.78,1.84,1.84,0,0,1,2.47-2.48A1.68,1.68,0,0,1,671,436.77Z"/><path class="cls-6" d="M467.31,412.06a1.85,1.85,0,0,1-2.48,2.48,1.62,1.62,0,0,1-.78-.79,1.84,1.84,0,0,1,2.47-2.47A1.58,1.58,0,0,1,467.31,412.06Z"/><path class="cls-6" d="M420.34,382.22a1.85,1.85,0,0,1-2.48,2.48,1.62,1.62,0,0,1-.78-.79,1.84,1.84,0,0,1,2.47-2.47A1.58,1.58,0,0,1,420.34,382.22Z"/><path class="cls-6" d="M371.32,268.08a1.84,1.84,0,0,1-2.47,2.48,1.68,1.68,0,0,1-.79-.79,1.85,1.85,0,0,1,2.48-2.48A1.62,1.62,0,0,1,371.32,268.08Z"/><path class="cls-6" d="M445.94,389.82a1.84,1.84,0,0,1-2.47,2.48,1.68,1.68,0,0,1-.79-.79,1.84,1.84,0,0,1,2.48-2.47A1.56,1.56,0,0,1,445.94,389.82Z"/><path class="cls-6" d="M514.83,520.26a1.84,1.84,0,0,1-2.48,2.47,1.62,1.62,0,0,1-.79-.78,1.85,1.85,0,0,1,2.48-2.48A1.68,1.68,0,0,1,514.83,520.26Z"/><path class="cls-6" d="M720.68,451.88a1.84,1.84,0,0,1-2.48,2.47,1.54,1.54,0,0,1-.78-.79,1.84,1.84,0,0,1,2.47-2.47A1.68,1.68,0,0,1,720.68,451.88Z"/><path class="cls-6" d="M908.13,361.69a1.84,1.84,0,0,1-2.47,2.47,1.64,1.64,0,0,1-.79-.79,1.84,1.84,0,0,1,2.48-2.47A1.62,1.62,0,0,1,908.13,361.69Z"/><path class="cls-6" d="M1046.39,420.34a1.84,1.84,0,0,1-2.48,2.47,1.62,1.62,0,0,1-.79-.78,1.85,1.85,0,0,1,2.48-2.48A1.68,1.68,0,0,1,1046.39,420.34Z"/><path class="cls-6" d="M1050.75,401.62a1.85,1.85,0,0,1-2.48,2.48,1.62,1.62,0,0,1-.78-.79,1.84,1.84,0,0,1,2.47-2.47A1.58,1.58,0,0,1,1050.75,401.62Z"/><path class="cls-6" d="M953.34,199.62a1.84,1.84,0,0,1-2.48,2.47,1.56,1.56,0,0,1-.78-.78,1.84,1.84,0,0,1,2.47-2.48A1.68,1.68,0,0,1,953.34,199.62Z"/><path class="cls-6" d="M999,145.55a1.84,1.84,0,0,1-2.47,2.48,1.68,1.68,0,0,1-.79-.79,1.85,1.85,0,0,1,2.48-2.48A1.62,1.62,0,0,1,999,145.55Z"/><path class="cls-6" d="M1269.18,348.71a1.84,1.84,0,0,1-2.47,2.47,1.62,1.62,0,0,1-.79-.78,1.85,1.85,0,0,1,2.48-2.48A1.62,1.62,0,0,1,1269.18,348.71Z"/><path class="cls-6" d="M1155.8,548.39a1.85,1.85,0,0,1-2.48,2.48,1.58,1.58,0,0,1-.78-.79,1.84,1.84,0,0,1,2.47-2.47A1.62,1.62,0,0,1,1155.8,548.39Z"/><path class="cls-6" d="M967.47,654.83a1.84,1.84,0,0,1-2.47,2.48,1.68,1.68,0,0,1-.79-.79,1.84,1.84,0,0,1,2.48-2.47A1.56,1.56,0,0,1,967.47,654.83Z"/><path class="cls-6" d="M1002.89,545.69a1.84,1.84,0,0,1-2.47,2.47,1.62,1.62,0,0,1-.79-.78,1.85,1.85,0,0,1,2.48-2.48A1.62,1.62,0,0,1,1002.89,545.69Z"/><path class="cls-6" d="M1120.35,604.94a1.84,1.84,0,0,1-2.47,2.47,1.6,1.6,0,0,1-.79-.79,1.84,1.84,0,0,1,2.48-2.47A1.58,1.58,0,0,1,1120.35,604.94Z"/><path class="cls-6" d="M1123.77,711.53a1.85,1.85,0,0,1-2.48,2.48,1.68,1.68,0,0,1-.79-.79,1.84,1.84,0,0,1,2.48-2.47A1.62,1.62,0,0,1,1123.77,711.53Z"/><path class="cls-6" d="M1067.46,759.38a1.84,1.84,0,0,1-2.48,2.47,1.62,1.62,0,0,1-.79-.78,1.85,1.85,0,0,1,2.48-2.48A1.68,1.68,0,0,1,1067.46,759.38Z"/><path class="cls-6" d="M1041.14,830.08a1.85,1.85,0,0,1-2.48,2.48,1.62,1.62,0,0,1-.78-.79,1.83,1.83,0,0,1,2.47-2.47A1.62,1.62,0,0,1,1041.14,830.08Z"/><path class="cls-6" d="M1145.37,878.34a1.84,1.84,0,0,1-2.47,2.47,1.62,1.62,0,0,1-.79-.78,1.85,1.85,0,0,1,2.48-2.48A1.62,1.62,0,0,1,1145.37,878.34Z"/><path class="cls-6" d="M1245.21,660.76a1.84,1.84,0,0,1-2.48,2.47,1.56,1.56,0,0,1-.78-.78,1.84,1.84,0,0,1,2.47-2.48A1.68,1.68,0,0,1,1245.21,660.76Z"/><path class="cls-6" d="M1286.08,671.12a1.84,1.84,0,0,1-2.48,2.47,1.56,1.56,0,0,1-.78-.78,1.84,1.84,0,0,1,2.47-2.48A1.68,1.68,0,0,1,1286.08,671.12Z"/><path class="cls-6" d="M1427.9,733.48a1.84,1.84,0,0,1-2.47,2.47,1.58,1.58,0,0,1-.79-.78,1.85,1.85,0,0,1,2.48-2.48A1.62,1.62,0,0,1,1427.9,733.48Z"/><path class="cls-6" d="M1493.36,770.23a1.84,1.84,0,0,1-2.48,2.47,1.6,1.6,0,0,1-.78-.78,1.84,1.84,0,0,1,2.47-2.48A1.64,1.64,0,0,1,1493.36,770.23Z"/><path class="cls-6" d="M1390.8,801.52a1.84,1.84,0,0,1-2.47,2.47,1.62,1.62,0,0,1-.79-.78,1.85,1.85,0,0,1,2.48-2.48A1.62,1.62,0,0,1,1390.8,801.52Z"/><path class="cls-6" d="M1074.67,851.22a1.84,1.84,0,0,1-2.47,2.48,1.68,1.68,0,0,1-.79-.79,1.84,1.84,0,0,1,2.48-2.47A1.56,1.56,0,0,1,1074.67,851.22Z"/><path class="cls-6" d="M1116.64,871.35a1.85,1.85,0,0,1-2.48,2.48,1.68,1.68,0,0,1-.79-.79,1.84,1.84,0,0,1,2.48-2.47A1.62,1.62,0,0,1,1116.64,871.35Z"/><path class="cls-6" d="M1298,740.57a1.84,1.84,0,0,1-2.48,2.47,1.62,1.62,0,0,1-.78-.79,1.84,1.84,0,0,1,2.47-2.47A1.6,1.6,0,0,1,1298,740.57Z"/><path class="cls-6" d="M1404.31,642.11a1.84,1.84,0,0,1-2.47,2.48,1.6,1.6,0,0,1-.79-.79,1.84,1.84,0,0,1,2.47-2.47A1.58,1.58,0,0,1,1404.31,642.11Z"/><path class="cls-6" d="M1434.06,601.44a1.84,1.84,0,0,1-2.47,2.48,1.68,1.68,0,0,1-.79-.79,1.84,1.84,0,0,1,2.48-2.47A1.56,1.56,0,0,1,1434.06,601.44Z"/><path class="cls-6" d="M1341.43,432.68a1.84,1.84,0,0,1-2.47,2.48,1.68,1.68,0,0,1-.79-.79,1.85,1.85,0,0,1,2.48-2.48A1.62,1.62,0,0,1,1341.43,432.68Z"/><path class="cls-6" d="M1304.84,588.46a1.85,1.85,0,0,1-2.48,2.48,1.62,1.62,0,0,1-.78-.79,1.84,1.84,0,0,1,2.47-2.47A1.62,1.62,0,0,1,1304.84,588.46Z"/><path class="cls-6" d="M1455.32,388a1.84,1.84,0,0,1-2.47,2.48,1.64,1.64,0,0,1-.79-.79,1.84,1.84,0,0,1,2.47-2.47A1.58,1.58,0,0,1,1455.32,388Z"/><path class="cls-6" d="M1467.91,405.26a1.84,1.84,0,0,1-2.47,2.47,1.62,1.62,0,0,1-.79-.78,1.85,1.85,0,0,1,2.48-2.48A1.62,1.62,0,0,1,1467.91,405.26Z"/><path class="cls-6" d="M1568,611a1.84,1.84,0,0,1-2.47,2.47,1.58,1.58,0,0,1-.79-.78,1.85,1.85,0,0,1,2.48-2.48A1.62,1.62,0,0,1,1568,611Z"/><ellipse class="cls-6" cx="1520.03" cy="625.49" rx="1.85" ry="1.71" transform="translate(0.92 1253.21) rotate(-44.82)"/><path class="cls-6" d="M1482.93,555.35a1.84,1.84,0,0,1-2.48,2.47,1.56,1.56,0,0,1-.78-.78,1.84,1.84,0,0,1,2.47-2.48A1.64,1.64,0,0,1,1482.93,555.35Z"/><path class="cls-6" d="M1486,513.94a1.84,1.84,0,0,1-2.47,2.47,1.58,1.58,0,0,1-.79-.78,1.84,1.84,0,0,1,2.47-2.48A1.64,1.64,0,0,1,1486,513.94Z"/><ellipse class="cls-6" cx="1553.31" cy="499.44" rx="1.85" ry="1.71" transform="translate(99.44 1240.02) rotate(-44.82)"/><path class="cls-6" d="M1622.53,718.43a1.84,1.84,0,0,1-2.48,2.47,1.62,1.62,0,0,1-.79-.78,1.85,1.85,0,0,1,2.48-2.48A1.68,1.68,0,0,1,1622.53,718.43Z"/><path class="cls-6" d="M1574.4,854.11a1.84,1.84,0,0,1-2.48,2.47,1.62,1.62,0,0,1-.79-.78,1.85,1.85,0,0,1,2.48-2.48A1.68,1.68,0,0,1,1574.4,854.11Z"/><path class="cls-6" d="M1537.28,878.11a1.84,1.84,0,0,1-2.47,2.48,1.68,1.68,0,0,1-.79-.79,1.84,1.84,0,0,1,2.48-2.47A1.56,1.56,0,0,1,1537.28,878.11Z"/><path class="cls-6" d="M1466.43,937.09a1.84,1.84,0,0,1-2.47,2.47,1.64,1.64,0,0,1-.79-.79,1.84,1.84,0,0,1,2.48-2.47A1.58,1.58,0,0,1,1466.43,937.09Z"/><path class="cls-6" d="M1402.28,946.18a1.84,1.84,0,0,1-2.48,2.47,1.62,1.62,0,0,1-.79-.78,1.85,1.85,0,0,1,2.48-2.48A1.68,1.68,0,0,1,1402.28,946.18Z"/><path class="cls-6" d="M1383,961.92a1.84,1.84,0,0,1-2.47,2.47,1.58,1.58,0,0,1-.79-.78,1.85,1.85,0,0,1,2.48-2.48A1.62,1.62,0,0,1,1383,961.92Z"/><path class="cls-6" d="M1361.74,1018a1.84,1.84,0,0,1-2.48,2.47,1.56,1.56,0,0,1-.78-.78,1.84,1.84,0,0,1,2.47-2.48A1.68,1.68,0,0,1,1361.74,1018Z"/><path class="cls-6" d="M483.21,911.21a1.84,1.84,0,0,1-2.48,2.47,1.56,1.56,0,0,1-.78-.78,1.84,1.84,0,0,1,2.47-2.48A1.68,1.68,0,0,1,483.21,911.21Z"/><path class="cls-6" d="M649.28,958.79a1.84,1.84,0,0,1-2.47,2.47,1.62,1.62,0,0,1-.79-.78,1.84,1.84,0,0,1,2.47-2.48A1.6,1.6,0,0,1,649.28,958.79Z"/><path class="cls-6" d="M741.89,874.23a1.85,1.85,0,0,1-2.48,2.48,1.62,1.62,0,0,1-.78-.79,1.84,1.84,0,0,1,2.47-2.47A1.62,1.62,0,0,1,741.89,874.23Z"/><path class="cls-6" d="M448.49,1035.19a1.84,1.84,0,0,1-2.47,2.48,1.64,1.64,0,0,1-.79-.79,1.84,1.84,0,0,1,2.47-2.48A1.64,1.64,0,0,1,448.49,1035.19Z"/><ellipse class="cls-6" cx="379.35" cy="871.4" rx="1.85" ry="1.71" transform="translate(-503.95 520.66) rotate(-44.82)"/><path class="cls-6" d="M681.54,686.46a1.84,1.84,0,0,1-2.47,2.47,1.58,1.58,0,0,1-.79-.78,1.85,1.85,0,0,1,2.48-2.48A1.62,1.62,0,0,1,681.54,686.46Z"/><path class="cls-6" d="M788.26,837.35a1.84,1.84,0,0,1-2.47,2.47A1.64,1.64,0,0,1,785,839a1.84,1.84,0,0,1,2.48-2.47A1.58,1.58,0,0,1,788.26,837.35Z"/><path class="cls-6" d="M509.33,627.23a1.84,1.84,0,0,1-2.47,2.48,1.64,1.64,0,0,1-.79-.79,1.84,1.84,0,0,1,2.47-2.47A1.54,1.54,0,0,1,509.33,627.23Z"/><path class="cls-6" d="M471.5,711.88a1.85,1.85,0,0,1-2.48,2.48,1.62,1.62,0,0,1-.78-.79,1.84,1.84,0,0,1,2.47-2.47A1.62,1.62,0,0,1,471.5,711.88Z"/><path class="cls-6" d="M381.23,667.89a1.84,1.84,0,0,1-2.48,2.47,1.62,1.62,0,0,1-.79-.78,1.85,1.85,0,0,1,2.48-2.48A1.68,1.68,0,0,1,381.23,667.89Z"/><path class="cls-6" d="M554.07,553.35a1.84,1.84,0,0,1-2.48,2.47,1.62,1.62,0,0,1-.79-.78,1.85,1.85,0,0,1,2.48-2.48A1.68,1.68,0,0,1,554.07,553.35Z"/><path class="cls-6" d="M699.73,432.2a1.84,1.84,0,0,1-2.47,2.47,1.6,1.6,0,0,1-.79-.79,1.84,1.84,0,0,1,2.47-2.47A1.6,1.6,0,0,1,699.73,432.2Z"/><path class="cls-6" d="M744.71,278.12a1.85,1.85,0,0,1-2.48,2.48,1.68,1.68,0,0,1-.79-.79,1.84,1.84,0,0,1,2.48-2.47A1.66,1.66,0,0,1,744.71,278.12Z"/><path class="cls-6" d="M699.86,308.34a1.84,1.84,0,0,1-2.47,2.47,1.64,1.64,0,0,1-.79-.79,1.84,1.84,0,0,1,2.48-2.47A1.58,1.58,0,0,1,699.86,308.34Z"/><path class="cls-6" d="M601.21,353.8a1.84,1.84,0,0,1-2.47,2.48,1.64,1.64,0,0,1-.79-.79,1.84,1.84,0,0,1,2.47-2.47A1.58,1.58,0,0,1,601.21,353.8Z"/><path class="cls-6" d="M590.58,397.2a1.85,1.85,0,0,1-2.48,2.48,1.68,1.68,0,0,1-.79-.79,1.84,1.84,0,0,1,2.48-2.47A1.62,1.62,0,0,1,590.58,397.2Z"/><path class="cls-6" d="M573.57,434.67a1.85,1.85,0,0,1-2.48,2.48,1.62,1.62,0,0,1-.78-.79,1.84,1.84,0,0,1,2.47-2.47A1.62,1.62,0,0,1,573.57,434.67Z"/><path class="cls-6" d="M574.44,317.68a1.85,1.85,0,0,1-2.48,2.48,1.62,1.62,0,0,1-.78-.79,1.84,1.84,0,0,1,2.47-2.47A1.62,1.62,0,0,1,574.44,317.68Z"/><path class="cls-6" d="M596.48,260.1a1.84,1.84,0,0,1-2.47,2.48,1.68,1.68,0,0,1-.79-.79,1.84,1.84,0,0,1,2.48-2.47A1.56,1.56,0,0,1,596.48,260.1Z"/><path class="cls-6" d="M639,227.45a1.84,1.84,0,0,1-2.47,2.48,1.64,1.64,0,0,1-.79-.79,1.84,1.84,0,0,1,2.47-2.47A1.58,1.58,0,0,1,639,227.45Z"/><path class="cls-6" d="M671.52,176.06a1.84,1.84,0,0,1-2.48,2.47,1.56,1.56,0,0,1-.78-.78,1.84,1.84,0,0,1,2.47-2.48A1.68,1.68,0,0,1,671.52,176.06Z"/><path class="cls-6" d="M516.55,123.05a1.84,1.84,0,0,1-2.47,2.47,1.58,1.58,0,0,1-.79-.78,1.84,1.84,0,0,1,2.47-2.48A1.6,1.6,0,0,1,516.55,123.05Z"/><path class="cls-6" d="M732.69,115.76a1.85,1.85,0,0,1-2.48,2.48,1.68,1.68,0,0,1-.79-.79A1.84,1.84,0,0,1,731.9,115,1.62,1.62,0,0,1,732.69,115.76Z"/><path class="cls-6" d="M765,105.66a1.84,1.84,0,0,1-2.47,2.47,1.58,1.58,0,0,1-.79-.78,1.84,1.84,0,0,1,2.48-2.47A1.56,1.56,0,0,1,765,105.66Z"/><path class="cls-6" d="M926.82,152.33a1.85,1.85,0,0,1-2.48,2.48,1.68,1.68,0,0,1-.79-.79,1.85,1.85,0,0,1,2.48-2.48A1.68,1.68,0,0,1,926.82,152.33Z"/><path class="cls-6" d="M1010.43,285.94a1.84,1.84,0,0,1-2.48,2.47,1.56,1.56,0,0,1-.78-.78,1.84,1.84,0,0,1,2.47-2.48A1.68,1.68,0,0,1,1010.43,285.94Z"/><path class="cls-6" d="M1035,264a1.85,1.85,0,0,1-2.48,2.48,1.62,1.62,0,0,1-.78-.79,1.84,1.84,0,0,1,2.47-2.48A1.68,1.68,0,0,1,1035,264Z"/><path class="cls-6" d="M1169.91,159.22a1.85,1.85,0,0,1-2.48,2.48,1.68,1.68,0,0,1-.79-.79,1.84,1.84,0,0,1,2.48-2.47A1.62,1.62,0,0,1,1169.91,159.22Z"/><path class="cls-6" d="M1333.55,74.89a1.84,1.84,0,0,1-2.47,2.47,1.62,1.62,0,0,1-.79-.78,1.85,1.85,0,0,1,2.48-2.48A1.62,1.62,0,0,1,1333.55,74.89Z"/><path class="cls-6" d="M1497.76,175.74a1.84,1.84,0,0,1-2.48,2.47,1.62,1.62,0,0,1-.79-.78A1.85,1.85,0,0,1,1497,175,1.68,1.68,0,0,1,1497.76,175.74Z"/><path class="cls-6" d="M1533.13,201.86a1.85,1.85,0,0,1-2.48,2.48,1.62,1.62,0,0,1-.78-.79,1.84,1.84,0,0,1,2.47-2.47A1.58,1.58,0,0,1,1533.13,201.86Z"/><path class="cls-6" d="M1597.38,131.41a1.84,1.84,0,0,1-2.48,2.47,1.64,1.64,0,0,1-.79-.79,1.84,1.84,0,0,1,2.48-2.47A1.68,1.68,0,0,1,1597.38,131.41Z"/><path class="cls-6" d="M1521.1,69a1.84,1.84,0,0,1-2.47,2.48,1.68,1.68,0,0,1-.79-.79,1.84,1.84,0,0,1,2.48-2.47A1.56,1.56,0,0,1,1521.1,69Z"/><path class="cls-6" d="M1486.66,1004.77a1.84,1.84,0,0,1-2.48,2.47,1.62,1.62,0,0,1-.79-.78,1.85,1.85,0,0,1,2.48-2.48A1.68,1.68,0,0,1,1486.66,1004.77Z"/><path class="cls-6" d="M1525.65,954.55a1.85,1.85,0,0,1-2.48,2.48,1.62,1.62,0,0,1-.78-.79,1.84,1.84,0,0,1,2.47-2.47A1.58,1.58,0,0,1,1525.65,954.55Z"/><path class="cls-6" d="M1625.44,959.17a1.84,1.84,0,0,1-2.48,2.47,1.58,1.58,0,0,1-.78-.79,1.84,1.84,0,0,1,2.47-2.47A1.64,1.64,0,0,1,1625.44,959.17Z"/><path class="cls-6" d="M1265.59,879.4a1.84,1.84,0,0,1-2.47,2.48,1.64,1.64,0,0,1-.79-.79,1.84,1.84,0,0,1,2.47-2.47A1.54,1.54,0,0,1,1265.59,879.4Z"/><path class="cls-6" d="M1168.32,797.76a1.84,1.84,0,0,1-2.47,2.48,1.68,1.68,0,0,1-.79-.79,1.85,1.85,0,0,1,2.48-2.48A1.62,1.62,0,0,1,1168.32,797.76Z"/><path class="cls-6" d="M1129.23,778.21a1.85,1.85,0,0,1-2.48,2.48,1.62,1.62,0,0,1-.78-.79,1.84,1.84,0,0,1,2.47-2.47A1.62,1.62,0,0,1,1129.23,778.21Z"/><path class="cls-6" d="M1141.76,757.73a1.84,1.84,0,0,1-2.47,2.47,1.62,1.62,0,0,1-.79-.78,1.85,1.85,0,0,1,2.48-2.48A1.62,1.62,0,0,1,1141.76,757.73Z"/><path class="cls-6" d="M952.5,800.26a1.84,1.84,0,0,1-2.47,2.47,1.58,1.58,0,0,1-.79-.78,1.84,1.84,0,0,1,2.47-2.48A1.64,1.64,0,0,1,952.5,800.26Z"/><path class="cls-6" d="M937.08,892.7a1.84,1.84,0,0,1-2.47,2.47,1.54,1.54,0,0,1-.79-.78,1.85,1.85,0,0,1,2.48-2.48A1.66,1.66,0,0,1,937.08,892.7Z"/><path class="cls-6" d="M934,953.77a1.84,1.84,0,0,1-2.47,2.47,1.62,1.62,0,0,1-.79-.78A1.85,1.85,0,0,1,933.2,953,1.62,1.62,0,0,1,934,953.77Z"/><path class="cls-6" d="M872.14,922.88a1.84,1.84,0,0,1-2.48,2.47,1.62,1.62,0,0,1-.79-.78,1.85,1.85,0,0,1,2.48-2.48A1.68,1.68,0,0,1,872.14,922.88Z"/><path class="cls-6" d="M783.79,682.29a1.84,1.84,0,0,1-2.47,2.47,1.64,1.64,0,0,1-.79-.79A1.84,1.84,0,0,1,783,681.5,1.58,1.58,0,0,1,783.79,682.29Z"/><path class="cls-6" d="M773.13,638.42a1.84,1.84,0,0,1-2.47,2.47,1.6,1.6,0,0,1-.79-.79,1.84,1.84,0,0,1,2.47-2.47A1.6,1.6,0,0,1,773.13,638.42Z"/></g></g></g></g></g></svg>