<svg xmlns="http://www.w3.org/2000/svg" xmlns:xlink="http://www.w3.org/1999/xlink" width="1030.664" height="459.728" viewBox="0 0 1030.664 459.728">
  <defs>
    <linearGradient id="linear-gradient" x1="0.498" y1="1.116" x2="0.504" y2="0.012" gradientUnits="objectBoundingBox">
      <stop offset="0" stop-color="#27b7ff" stop-opacity="0"/>
      <stop offset="0.183" stop-color="#27b7ff" stop-opacity="0"/>
      <stop offset="1" stop-color="#b9d7cf"/>
    </linearGradient>
    <linearGradient id="linear-gradient-2" x1="-0.026" y1="0.5" x2="1.044" y2="0.5" gradientUnits="objectBoundingBox">
      <stop offset="0" stop-color="#069efc"/>
      <stop offset="1" stop-color="#b9d7cf"/>
    </linearGradient>
    <linearGradient id="linear-gradient-3" x1="0" y1="0.5" x2="1" y2="0.5" xlink:href="#linear-gradient-2"/>
    <filter id="Path_8910" x="691.218" y="68.062" width="38.093" height="38.098" filterUnits="userSpaceOnUse">
      <feOffset dx="2.126" dy="2.126" input="SourceAlpha"/>
      <feGaussianBlur stdDeviation="0.531" result="blur"/>
      <feFlood flood-opacity="0.149"/>
      <feComposite operator="in" in2="blur"/>
      <feComposite in="SourceGraphic"/>
    </filter>
  </defs>
  <g id="Group_12656" data-name="Group 12656" transform="translate(0 -0.317)">
    <path id="Path_8907" data-name="Path 8907" d="M715.725,295.9H714.3v-1.242H-262.1V295.9h-.174V709.308h.174v1.247H714.3v-1.247h1.42ZM146.878,480.881H225.31v43.447H146.878Zm-2.833,43.447H65.618V480.881h78.426Zm84.1-43.447h78.432v43.447H228.144Zm81.266,0h78.426v43.447H309.409Zm0-2.489V434.951h78.426v43.441Zm-2.833,0H228.144V434.951h78.432Zm-81.266,0H146.878V434.951H225.31Zm-81.266,0H65.618V434.951h78.426Zm-81.266,0H-15.647V434.951H62.779Zm0,2.489v43.447H-15.647V480.881Zm0,45.936v43.446H-15.647V526.817Zm2.839,0h78.426v43.446H65.618Zm81.259,0H225.31v43.446H146.878Zm81.266,0h78.432v43.446H228.144Zm81.266,0h78.426v43.446H309.409Zm81.26,0H469.1v43.446H390.669Zm0-2.489V480.881H469.1v43.447Zm0-45.936V434.951H469.1v43.441Zm0-45.931V389.015H469.1v43.447Zm-2.833,0H309.409V389.015h78.426Zm-81.259,0H228.144V389.015h78.432Zm-81.266,0H146.878V389.015H225.31Zm-81.266,0H65.618V389.015h78.426Zm-81.266,0H-15.647V389.015H62.779Zm-81.259,0H-96.913V389.015H-18.48Zm0,2.489v43.441H-96.913V434.951Zm0,45.931v43.447H-96.913V480.881Zm0,45.936v43.446H-96.913V526.817Zm0,45.936v43.441H-96.913V572.753Zm2.833,0H62.779v43.441H-15.647Zm81.266,0h78.426v43.441H65.618Zm81.259,0H225.31v43.441H146.878Zm81.266,0h78.432v43.441H228.144Zm81.266,0h78.426v43.441H309.409Zm81.26,0H469.1v43.441H390.669Zm81.265,0h78.432v43.441H471.934Zm0-2.489V526.817h78.432v43.446Zm0-45.936V480.881h78.432v43.447Zm0-45.936V434.951h78.432v43.441Zm0-45.931V389.015h78.432v43.447Zm0-45.936V343.084h78.432v43.441Zm-2.833,0H390.669V343.084H469.1Zm-81.266,0H309.409V343.084h78.426Zm-81.259,0H228.144V343.084h78.432Zm-81.266,0H146.878V343.084H225.31Zm-81.266,0H65.618V343.084h78.426Zm-81.266,0H-15.647V343.084H62.779Zm-81.259,0H-96.913V343.084H-18.48Zm-81.266,0h-78.426V343.084h78.426Zm0,2.489v43.447h-78.426V389.015Zm0,45.936v43.441h-78.426V434.951Zm0,45.931v43.447h-78.426V480.881Zm0,45.936v43.446h-78.426V526.817Zm0,45.936v43.441h-78.426V572.753Zm0,45.936v43.442h-78.426V618.689Zm2.833,0H-18.48v43.442H-96.913Zm81.266,0H62.779v43.442H-15.647Zm81.266,0h78.426v43.442H65.618Zm81.259,0H225.31v43.442H146.878Zm81.266,0h78.432v43.442H228.144Zm81.266,0h78.426v43.442H309.409Zm81.26,0H469.1v43.442H390.669Zm81.265,0h78.432v43.442H471.934Zm81.266,0h78.426v43.442H553.2Zm0-2.495V572.753h78.426v43.441Zm0-45.931V526.817h78.426v43.446Zm0-45.936V480.881h78.426v43.447Zm0-45.936V434.951h78.426v43.441Zm0-45.931V389.015h78.426v43.447Zm0-45.936V343.084h78.426v43.441Zm0-45.936V297.148h78.426V340.59Zm-2.833,0H471.934V297.148h78.432Zm-81.266,0H390.669V297.148H469.1Zm-81.266,0H309.409V297.148h78.426Zm-81.259,0H228.144V297.148h78.432Zm-81.266,0H146.878V297.148H225.31Zm-81.266,0H65.618V297.148h78.426Zm-81.266,0H-15.647V297.148H62.779Zm-81.259,0H-96.913V297.148H-18.48Zm-81.266,0h-78.426V297.148h78.426Zm-81.266,0h-78.426V297.148h78.426Zm0,2.494v43.441h-78.426V343.084Zm0,45.931v43.447h-78.426V389.015Zm0,45.936v43.441h-78.426V434.951Zm0,45.931v43.447h-78.426V480.881Zm0,45.936v43.446h-78.426V526.817Zm0,45.936v43.441h-78.426V572.753Zm0,45.936v43.442h-78.426V618.689Zm0,45.93v43.447h-78.426V664.62Zm2.839,0h78.426v43.447h-78.426Zm81.259,0H-18.48v43.447H-96.913Zm81.266,0H62.779v43.447H-15.647Zm81.266,0h78.426v43.447H65.618Zm81.259,0H225.31v43.447H146.878Zm81.266,0h78.432v43.447H228.144Zm81.266,0h78.426v43.447H309.409Zm81.26,0H469.1v43.447H390.669Zm81.265,0h78.432v43.447H471.934Zm81.266,0h78.426v43.447H553.2Zm81.259,0h78.432v43.447H634.459Zm0-2.489V618.689h78.432v43.442Zm0-45.936V572.753h78.432v43.441Zm0-45.931V526.817h78.432v43.446Zm0-45.936V480.881h78.432v43.447Zm0-45.936V434.951h78.432v43.441Zm0-45.931V389.015h78.432v43.447Zm0-45.936V343.084h78.432v43.441Zm0-45.936V297.148h78.432V340.59Z" transform="translate(314.94 -284.291)" fill="#517bb7"/>
    <path id="Path_8908" data-name="Path 8908" d="M713.47,650.417V471.107c-81.3,0-81.3,54.788-162.6,54.788S469.576,308.4,388.276,308.4,306.981,525.9,225.693,525.9s-81.288-94.63-162.582-94.63S-18.177,525.9-99.459,525.9s-81.288-78.031-162.577-78.031V650.417Z" transform="translate(315.947 -225.4)" fill="url(#linear-gradient)"/>
    <text id="_10" data-name="10" transform="translate(12.856 414.315)" fill="#fff" font-size="12" font-family="OpenSans, Open Sans"><tspan x="0" y="0">10</tspan></text>
    <text id="_20" data-name="20" transform="translate(12.856 370.184)" fill="#fff" font-size="12" font-family="OpenSans, Open Sans"><tspan x="0" y="0">20</tspan></text>
    <text id="_30" data-name="30" transform="translate(12.856 325.593)" fill="#fff" font-size="12" font-family="OpenSans, Open Sans"><tspan x="0" y="0">30</tspan></text>
    <text id="_40" data-name="40" transform="translate(12.856 277.322)" fill="#fff" font-size="12" font-family="OpenSans, Open Sans"><tspan x="0" y="0">40</tspan></text>
    <text id="_50" data-name="50" transform="translate(12.856 230.001)" fill="#fff" font-size="12" font-family="OpenSans, Open Sans"><tspan x="0" y="0">50</tspan></text>
    <text id="_60" data-name="60" transform="translate(12.856 188.677)" fill="#fff" font-size="12" font-family="OpenSans, Open Sans"><tspan x="0" y="0">60</tspan></text>
    <text id="_70" data-name="70" transform="translate(12.856 139.859)" fill="#fff" font-size="12" font-family="OpenSans, Open Sans"><tspan x="0" y="0">70</tspan></text>
    <text id="_80" data-name="80" transform="translate(12.856 97.56)" fill="#fff" font-size="12" font-family="OpenSans, Open Sans"><tspan x="0" y="0">80</tspan></text>
    <text id="_90" data-name="90" transform="translate(12.856 52.928)" fill="#fff" font-size="12" font-family="OpenSans, Open Sans"><tspan x="0" y="0">90</tspan></text>
    <text id="_100" data-name="100" transform="translate(0 15.317)" fill="#fff" font-size="14" font-family="OpenSans, Open Sans"><tspan x="0" y="0">100</tspan></text>
    <g id="Group_12116" data-name="Group 12116" transform="translate(34.262 442.045)">
      <text id="JAN" transform="translate(1 12)" fill="#fff" font-size="11" font-family="OpenSans-Bold, Open Sans" font-weight="700"><tspan x="0" y="0">JAN</tspan></text>
      <text id="FEB" transform="translate(74.893 14)" fill="#fff" font-size="13" font-family="OpenSans-Bold, Open Sans" font-weight="700"><tspan x="0" y="0">FEB</tspan></text>
      <text id="MAR" transform="translate(163.931 14)" fill="#fff" font-size="13" font-family="OpenSans-Bold, Open Sans" font-weight="700"><tspan x="0" y="0">MAR</tspan></text>
      <text id="APR" transform="translate(253.113 12)" fill="#fff" font-size="11" font-family="OpenSans-Bold, Open Sans" font-weight="700"><tspan x="0" y="0">APR</tspan></text>
      <text id="MAY" transform="translate(326.936 12)" fill="#fff" font-size="11" font-family="OpenSans-Bold, Open Sans" font-weight="700"><tspan x="0" y="0">MAY</tspan></text>
      <text id="JUN" transform="translate(416.636 14)" fill="#fff" font-size="13" font-family="OpenSans-Bold, Open Sans" font-weight="700"><tspan x="0" y="0">JUN</tspan></text>
      <text id="JUL" transform="translate(499.435 12)" fill="#fff" font-size="11" font-family="OpenSans-Bold, Open Sans" font-weight="700"><tspan x="0" y="0">JUL</tspan></text>
      <text id="AUG" transform="translate(568.833 11.561)" fill="#fff" font-size="9" font-family="OpenSans-Bold, Open Sans" font-weight="700"><tspan x="0" y="0">AUG</tspan></text>
      <text id="SEP" transform="translate(656.635 14)" fill="#fff" font-size="13" font-family="OpenSans-Bold, Open Sans" font-weight="700"><tspan x="0" y="0">SEP</tspan></text>
      <text id="OCT" transform="translate(738.808 11.561)" fill="#fff" font-size="9" font-family="OpenSans-Bold, Open Sans" font-weight="700"><tspan x="0" y="0">OCT</tspan></text>
      <text id="NOV" transform="translate(830.474 11.561)" fill="#fff" font-size="9" font-family="OpenSans-Bold, Open Sans" font-weight="700"><tspan x="0" y="0">NOV</tspan></text>
      <text id="DEC" transform="translate(906.617 11.561)" fill="#fff" font-size="9" font-family="OpenSans-Bold, Open Sans" font-weight="700"><tspan x="0" y="0">DEC</tspan></text>
    </g>
    <path id="Path_8909" data-name="Path 8909" d="M635.46,502.234c-20.464,13.7-41.62,27.872-83.432,27.872-42.83,0-63.931-56.088-84.341-110.348-19.814-52.679-40.3-107.145-79.279-107.145s-59.46,54.466-79.267,107.145c-20.4,54.254-41.5,110.348-84.329,110.348-42.222,0-63.42-24.522-83.932-48.245-20.62-23.856-40.1-46.39-79.67-46.39s-59.044,22.535-79.676,46.4c-20.494,23.713-41.692,48.235-83.914,48.235-42.077,0-63.269-20.22-83.763-39.774-19.874-18.957-38.677-36.888-75.656-38.157v-4.651c39.345,1.289,59.8,20.8,79.6,39.689,20.626,19.67,40.1,38.246,79.821,38.246,39.567,0,59.044-22.535,79.67-46.4,20.494-23.713,41.692-48.24,83.92-48.24s63.426,24.527,83.932,48.251c20.62,23.85,40.1,46.385,79.671,46.385,38.972,0,59.459-54.471,79.279-107.182,20.4-54.238,41.493-110.316,84.317-110.316s63.925,56.088,84.341,110.353c19.814,52.68,40.3,107.145,79.279,107.145,39.995,0,59.514-13.064,80.188-26.916,19.952-13.36,40.567-27.164,80.339-27.846v4.65C674.63,476.005,655.592,488.752,635.46,502.234Z" transform="translate(316.958 -227.286)" fill="url(#linear-gradient-2)"/>
    <circle id="Ellipse_11" data-name="Ellipse 11" cx="20.646" cy="20.646" r="20.646" transform="translate(687.942 64.921)" fill="url(#linear-gradient-3)"/>
    <g transform="matrix(1, 0, 0, 1, 0, 0.32)" filter="url(#Path_8910)">
      <path id="Path_8910-2" data-name="Path 8910" d="M-122.669,322.822a17.187,17.187,0,0,0-17.186-17.186,17.187,17.187,0,0,0-17.186,17.186,17.191,17.191,0,0,0,17.186,17.192A17.191,17.191,0,0,0-122.669,322.822Z" transform="translate(848.26 -237.57)" fill="#efefef"/>
    </g>
  </g>
</svg>
