<svg xmlns="http://www.w3.org/2000/svg" width="20" height="21.039" viewBox="0 0 20 21.039">
  <path id="Path_7724" data-name="Path 7724" d="M21.987,21.216l-4.93-5.208a8.545,8.545,0,0,0,1.962-5.461,8.44,8.44,0,0,0-8.364-8.494,8.439,8.439,0,0,0-8.363,8.494,8.44,8.44,0,0,0,8.363,8.5A8.186,8.186,0,0,0,15.448,17.5l4.967,5.248a1.081,1.081,0,0,0,1.543.03A1.121,1.121,0,0,0,21.987,21.216ZM10.655,4.267a6.28,6.28,0,0,1,0,12.559,6.28,6.28,0,0,1,0-12.559Z" transform="translate(-2.292 -2.052)" fill="#b9d7cf"/>
</svg>
