<svg xmlns="http://www.w3.org/2000/svg" width="36.194" height="35.123" viewBox="0 0 36.194 35.123">
  <g id="Group_12615" data-name="Group 12615" transform="translate(-77.183 234.083)">
    <rect id="Rectangle_2734" data-name="Rectangle 2734" width="9.577" height="19.714" rx="2" transform="translate(77.183 -218.674)" fill="#b9d7cf"/>
    <path id="Path_21038" data-name="Path 21038" d="M142.149-214.2h-.342a3.056,3.056,0,0,0,3.047-3.047,3.056,3.056,0,0,0-3.047-3.047h-9.775c1.206-1.9,2.841-4.927,2.841-7.4,0-3.918-2.146-6.095-3.545-6.343a2.4,2.4,0,0,0-2.83,1.679c-.4,1.182.311,3.421.034,4.221-.427,1.232-2.584,2.882-5.507,6.631a11.278,11.278,0,0,0-2.239,7.307v13.34a1.9,1.9,0,0,0,1.9,1.9h18.159a2.214,2.214,0,0,0,2.208-2.207,2.214,2.214,0,0,0-2.208-2.208h.311a2.713,2.713,0,0,0,2.705-2.705,2.713,2.713,0,0,0-2.705-2.705h1a2.713,2.713,0,0,0,2.705-2.705A2.713,2.713,0,0,0,142.149-214.2Z" transform="translate(-31.477 0)" fill="#b9d7cf"/>
  </g>
</svg>
