<svg xmlns="http://www.w3.org/2000/svg" width="32.984" height="32.995" viewBox="0 0 32.984 32.995">
  <g id="Group_12627" data-name="Group 12627" transform="translate(772.947 -50.764)">
    <path id="Path_21039" data-name="Path 21039" d="M-755.517,51.264c.606.082,1.217.142,1.818.249a15.7,15.7,0,0,1,9.25,5.2,15.453,15.453,0,0,1,3.9,8.94,15.555,15.555,0,0,1-3.235,11.326,15.44,15.44,0,0,1-9.314,5.895,15.512,15.512,0,0,1-13.053-2.93,15.536,15.536,0,0,1-5.936-9.358c-.148-.678-.2-1.376-.3-2.065-.016-.111-.038-.221-.058-.332V66.32c.026-.225.052-.449.077-.674a15.8,15.8,0,0,1,4.017-9.051,15.687,15.687,0,0,1,9.145-5.082c.6-.107,1.212-.167,1.818-.249Zm10.885,24.594a14.576,14.576,0,0,0-2.361-19.783,14.6,14.6,0,0,0-20.25,1.277,14.5,14.5,0,0,0-1.017,18.5Q-756.461,69.378-744.632,75.858Zm-22.786,1.049a14.51,14.51,0,0,0,21.925,0C-752.978,72.93-760.006,72.967-767.419,76.907Z" fill="#b9d7cf" stroke="#b9d7cf" stroke-width="1"/>
    <path id="Path_21040" data-name="Path 21040" d="M-650.683,118.621a7.693,7.693,0,0,1-7.644,7.668,7.694,7.694,0,0,1-7.686-7.657,7.68,7.68,0,0,1,7.644-7.661A7.683,7.683,0,0,1-650.683,118.621Zm-7.71,6.337a6.356,6.356,0,0,0,6.372-6.239,6.354,6.354,0,0,0-6.219-6.419,6.331,6.331,0,0,0-6.428,6.235A6.335,6.335,0,0,0-658.393,124.958Z" transform="translate(-98.106 -55.035)" fill="#b9d7cf" stroke="#b9d7cf" stroke-width="1"/>
  </g>
</svg>
