<svg xmlns="http://www.w3.org/2000/svg" width="32.873" height="31.991" viewBox="0 0 32.873 31.991">
  <g id="Group_12273" data-name="Group 12273" transform="translate(-967.376 -369.957)">
    <path id="Path_20566" data-name="Path 20566" d="M983.546,375.018a15.994,15.994,0,0,0-1.321,2.039,17.812,17.812,0,0,0,4.131,1.793c.047-.254.093-.508.145-.756a19.939,19.939,0,0,1,2.139-6.018,7.713,7.713,0,0,1,1.012-1.366,10,10,0,0,0-2.23.9A12.633,12.633,0,0,0,983.546,375.018Z" transform="translate(-8.311 -0.421)" fill="#b9d7cf"/>
    <path id="Path_20567" data-name="Path 20567" d="M992.669,391.517a41.827,41.827,0,0,0-.487,6.049h11.025a41.493,41.493,0,0,0-.487-6.049,21.711,21.711,0,0,1-10.051,0Z" transform="translate(-13.884 -12.067)" fill="#b9d7cf"/>
    <path id="Path_20568" data-name="Path 20568" d="M997.536,412.723a21.44,21.44,0,0,1,5.189.631,41.347,41.347,0,0,0,.486-6.042H992.186a41.891,41.891,0,0,0,.474,5.968A21.418,21.418,0,0,1,997.536,412.723Z" transform="translate(-13.886 -20.907)" fill="#b9d7cf"/>
    <path id="Path_20569" data-name="Path 20569" d="M977.054,394.887h5.758a42.194,42.194,0,0,1,.516-6.283,19.035,19.035,0,0,1-3.478-1.38c-.3-.156-.6-.321-.884-.494A19.592,19.592,0,0,0,977.054,394.887Z" transform="translate(-5.417 -9.388)" fill="#b9d7cf"/>
    <path id="Path_20570" data-name="Path 20570" d="M978.907,415.359a18.874,18.874,0,0,1,4.4-1.857,43.177,43.177,0,0,1-.5-6.19h-5.759A19.617,19.617,0,0,0,978.907,415.359Z" transform="translate(-5.414 -20.907)" fill="#b9d7cf"/>
    <path id="Path_20571" data-name="Path 20571" d="M999.469,370.232a1.886,1.886,0,0,0-1.962,0,3.922,3.922,0,0,0-1,.859,11.085,11.085,0,0,0-1.815,3.385,26.057,26.057,0,0,0-1.094,4.189,20.88,20.88,0,0,0,9.784,0c-.05-.274-.1-.545-.156-.808a19.15,19.15,0,0,0-2.031-5.74A5.117,5.117,0,0,0,999.469,370.232Z" transform="translate(-14.675 0)" fill="#b9d7cf"/>
    <path id="Path_20572" data-name="Path 20572" d="M993.729,422.839a19.15,19.15,0,0,0,2.027,5.74,5.158,5.158,0,0,0,1.728,1.885,1.881,1.881,0,0,0,1.962,0,3.855,3.855,0,0,0,1-.86,11.086,11.086,0,0,0,1.816-3.384,26.068,26.068,0,0,0,1.1-4.195,20.824,20.824,0,0,0-9.8-.077C993.611,422.251,993.668,422.548,993.729,422.839Z" transform="translate(-14.653 -28.792)" fill="#b9d7cf"/>
    <path id="Path_20573" data-name="Path 20573" d="M979.764,430.5a16.7,16.7,0,0,1-1.432-2.219,14.853,14.853,0,0,0-1.584,1.217,16.448,16.448,0,0,0,7.555,4.843c-.128-.063-.256-.127-.381-.2A13.507,13.507,0,0,1,979.764,430.5Z" transform="translate(-5.245 -32.644)" fill="#b9d7cf"/>
    <path id="Path_20574" data-name="Path 20574" d="M1011.33,430.145a7.956,7.956,0,0,1-1.011,1.366,10.148,10.148,0,0,0,2.228-.905,12.583,12.583,0,0,0,3.877-3.4,15.538,15.538,0,0,0,1.3-2,17.794,17.794,0,0,0-4.109-1.828c-.046.256-.1.508-.147.756A20.058,20.058,0,0,1,1011.33,430.145Z" transform="translate(-24.035 -29.894)" fill="#b9d7cf"/>
    <path id="Path_20575" data-name="Path 20575" d="M977.79,375.943c.234.181.477.351.725.521a14.394,14.394,0,0,1,5.528-5.747c.125-.07.253-.132.381-.2a16.458,16.458,0,0,0-7.46,4.734C977.228,375.492,977.5,375.722,977.79,375.943Z" transform="translate(-5.366 -0.316)" fill="#b9d7cf"/>
    <path id="Path_20576" data-name="Path 20576" d="M970.993,417.158c.254-.223.516-.443.787-.653.3-.233.62-.453.944-.667a20.49,20.49,0,0,1-1.991-8.527h-3.357A16.374,16.374,0,0,0,970.993,417.158Z" transform="translate(0 -20.907)" fill="#b9d7cf"/>
    <path id="Path_20577" data-name="Path 20577" d="M1015.885,370.717a13.507,13.507,0,0,1,4.157,3.645,16.875,16.875,0,0,1,1.367,2.1,14.867,14.867,0,0,0,1.554-1.21,16.44,16.44,0,0,0-7.459-4.736C1015.633,370.586,1015.76,370.648,1015.885,370.717Z" transform="translate(-26.937 -0.316)" fill="#b9d7cf"/>
    <path id="Path_20578" data-name="Path 20578" d="M986.26,423.163a18.234,18.234,0,0,0-3.389,1.339c-.266.137-.528.284-.784.435a13.584,13.584,0,0,0,5.258,5.553,10.027,10.027,0,0,0,2.234.906c-.067-.07-.135-.14-.2-.215a11.931,11.931,0,0,1-1.978-3.666A27.168,27.168,0,0,1,986.26,423.163Z" transform="translate(-8.234 -29.779)" fill="#b9d7cf"/>
    <path id="Path_20579" data-name="Path 20579" d="M1029.751,383.951a20.455,20.455,0,0,1,2.05,8.644h3.358a16.4,16.4,0,0,0-3.706-9.96c-.277.247-.562.487-.859.718C1030.323,383.56,1030.042,383.757,1029.751,383.951Z" transform="translate(-34.91 -7.096)" fill="#b9d7cf"/>
    <path id="Path_20580" data-name="Path 20580" d="M1031.388,417.326a16.388,16.388,0,0,0,3.749-10.014h-3.355A20.456,20.456,0,0,1,1029.71,416,15.3,15.3,0,0,1,1031.388,417.326Z" transform="translate(-34.887 -20.907)" fill="#b9d7cf"/>
    <path id="Path_20581" data-name="Path 20581" d="M970.731,392.6a20.472,20.472,0,0,1,2.049-8.643,15.772,15.772,0,0,1-1.7-1.316,16.372,16.372,0,0,0-3.7,9.958Z" transform="translate(0 -7.098)" fill="#b9d7cf"/>
    <path id="Path_20582" data-name="Path 20582" d="M1021.423,414.926c.353.181.7.376,1.028.577a19.58,19.58,0,0,0,1.931-8.192h-5.761a42.235,42.235,0,0,1-.512,6.282A18.69,18.69,0,0,1,1021.423,414.926Z" transform="translate(-28.394 -20.907)" fill="#b9d7cf"/>
    <path id="Path_20583" data-name="Path 20583" d="M1015.885,434.352c-.125.068-.253.132-.381.2a16.454,16.454,0,0,0,7.414-4.681q-.449-.41-.94-.791c-.191-.146-.387-.289-.589-.427A14.4,14.4,0,0,1,1015.885,434.352Z" transform="translate(-26.937 -32.848)" fill="#b9d7cf"/>
    <path id="Path_20584" data-name="Path 20584" d="M1010.311,370.707c.066.07.131.14.2.216a11.883,11.883,0,0,1,1.981,3.666,27.056,27.056,0,0,1,1.122,4.261,18.319,18.319,0,0,0,3.244-1.3q.456-.238.889-.5a13.534,13.534,0,0,0-5.2-5.445A10.043,10.043,0,0,0,1010.311,370.707Z" transform="translate(-24.03 -0.42)" fill="#b9d7cf"/>
    <path id="Path_20585" data-name="Path 20585" d="M1018.626,394.884h5.76a19.592,19.592,0,0,0-1.914-8.159,18.615,18.615,0,0,1-4.36,1.874A42.579,42.579,0,0,1,1018.626,394.884Z" transform="translate(-28.397 -9.385)" fill="#b9d7cf"/>
  </g>
</svg>
