<svg xmlns="http://www.w3.org/2000/svg" width="36.237" height="33" viewBox="0 0 36.237 33">
  <path id="Path_20586" data-name="Path 20586" d="M607.114,852.934l-13.451-13.216a2.379,2.379,0,0,0-1.745-.737l-7.319.064a17.956,17.956,0,0,0-3.23-3.121c-2.472-1.874-5.207-3.038-7.138-3.038a2.672,2.672,0,0,0-2.278.939c-.706.931-.561,2.363.406,4.031a16.071,16.071,0,0,0,4.159,4.469,17.64,17.64,0,0,0,4.21,2.4l.049,5.6a2.386,2.386,0,0,0,.72,1.69.241.241,0,0,0,.032.04l13.459,13.225c1.2,1.177,2.44.493,3.615-.7l7.872-8.011C607.65,855.365,608.313,854.112,607.114,852.934Zm-22.12-9.224a1.617,1.617,0,0,1-1.263.47,1.74,1.74,0,0,1-.026-.267,1.788,1.788,0,0,1,1.346-1.729A1.72,1.72,0,0,1,584.994,843.71Zm-7.765-2.326a14.869,14.869,0,0,1-3.85-4.121c-.693-1.194-.875-2.213-.486-2.726a1.682,1.682,0,0,1,1.338-.472c1.687,0,4.149,1.073,6.426,2.8a17.706,17.706,0,0,1,2.411,2.2,2.393,2.393,0,0,0-2.369,2.414l.018,1.98A17.081,17.081,0,0,1,577.229,841.384Zm8.267,4.323a1.778,1.778,0,0,1-1.127-.41,2.4,2.4,0,0,0,1.564-.875,2.558,2.558,0,0,0,.362-2.107,1.788,1.788,0,0,1-.8,3.391Z" transform="translate(-571.511 -832.886)" fill="#b9d7cf"/>
</svg>
