<svg id="Group_12358" data-name="Group 12358" xmlns="http://www.w3.org/2000/svg" width="18.637" height="310.281" viewBox="0 0 18.637 310.281">
  <g id="Group_12355" data-name="Group 12355">
    <rect id="Rectangle_2722" data-name="Rectangle 2722" width="18.636" height="5.325" fill="#45717b"/>
  </g>
  <g id="Group_12356" data-name="Group 12356" transform="translate(0 18.581)">
    <path id="Path_20689" data-name="Path 20689" d="M-1572.718,1012.434h-18.636v-10.606h18.636Zm0-23.865h-18.636V977.963h18.636Zm0-23.866h-18.636V954.1h18.636Zm0-23.865h-18.636v-10.6h18.636Zm0-23.866h-18.636V906.367h18.636Zm0-23.865h-18.636V882.5h18.636Zm0-23.862h-18.636V858.639h18.636Zm0-23.866h-18.636v-10.6h18.636Zm0-23.865h-18.636V810.909h18.636Zm0-23.865h-18.636V787.045h18.636Zm0-23.866h-18.636V763.179h18.636Zm0-23.865h-18.636v-10.6h18.636Z" transform="translate(1591.354 -739.316)" fill="#45717b"/>
  </g>
  <g id="Group_12357" data-name="Group 12357" transform="translate(0 304.956)">
    <rect id="Rectangle_2723" data-name="Rectangle 2723" width="18.636" height="5.325" fill="#45717b"/>
  </g>
</svg>
