<svg xmlns="http://www.w3.org/2000/svg" width="56.552" height="56.552" viewBox="0 0 56.552 56.552">
  <g id="Group_12291" data-name="Group 12291" transform="translate(0.422 0.422)">
    <path id="Path_20588" data-name="Path 20588" d="M559.1,64.014a27.854,27.854,0,1,1-27.853-27.853A27.715,27.715,0,0,1,559.1,64.014Z" transform="translate(-503.389 -36.161)" fill="#babcbe" stroke="#fff" stroke-miterlimit="10" stroke-width="0.843"/>
    <g id="Group_12290" data-name="Group 12290" transform="translate(11.333 9.418)">
      <g id="Group_12287" data-name="Group 12287" transform="translate(5.644)">
        <path id="Path_20589" data-name="Path 20589" d="M532.47,51.1a10.878,10.878,0,1,1-10.878-10.878A10.878,10.878,0,0,1,532.47,51.1Z" transform="translate(-510.713 -40.224)" fill="#fff"/>
      </g>
      <g id="Group_12289" data-name="Group 12289" transform="translate(0 21.778)">
        <g id="Group_12288" data-name="Group 12288">
          <path id="Path_20590" data-name="Path 20590" d="M541.321,64.994v3.695a27.8,27.8,0,0,1-33.043,0V64.994a16.493,16.493,0,0,1,10.505-15.375,12.381,12.381,0,0,0,12.033,0A16.493,16.493,0,0,1,541.321,64.994Z" transform="translate(-508.278 -49.619)" fill="#fff"/>
        </g>
      </g>
    </g>
  </g>
</svg>
